<svg width="274" height="329" viewBox="0 0 274 329" fill="none" xmlns="http://www.w3.org/2000/svg">
<mask id="mask0_308_4383" style="mask-type:alpha" maskUnits="userSpaceOnUse" x="5" y="57" width="259" height="213">
<rect x="5.85071" y="57.1899" width="258" height="212" fill="#D9D9D9"/>
</mask>
<g mask="url(#mask0_308_4383)">
</g>
<g clip-path="url(#clip0_308_4383)">
<path d="M227.424 166.31C228.162 166.264 233.729 163.023 233.947 162.344C234.582 160.373 229.542 158.282 229.881 157.551C235.74 153.573 251.959 146.918 256.596 141.414C263.507 133.212 249.909 109.22 239.065 112.952C225.26 120.973 33.2252 218.48 19.5954 226.672C19.5246 227.073 20.008 227.082 20.2868 227.227C27.2288 230.8 30.4699 233.101 34.25 240.327C37.0952 245.765 37.587 250.922 35.8292 256.79L35.9302 257.516C42.6545 254.228 49.0786 250.265 55.7756 246.916L219.647 162.54C221.163 163.316 226.216 166.386 227.424 166.31Z" fill="#DD9C56"/>
<path d="M34.4539 258.077C23.1534 263.395 7.21227 232.826 18.4955 227.261C29.5767 221.795 45.6148 252.826 34.4539 258.077Z" fill="#FFF3E4" stroke="#4A4F43" stroke-width="0.44874" stroke-linecap="round" stroke-linejoin="round"/>
<path d="M223.602 129.434L242.399 119.468" stroke="#4A4F43" stroke-width="3" stroke-linecap="round" stroke-linejoin="round"/>
<path d="M72.0236 229.539L90.8221 219.574" stroke="#4A4F43" stroke-width="3" stroke-linecap="round" stroke-linejoin="round"/>
<path d="M89.4157 215.04L108.214 205.075" stroke="#4A4F43" stroke-width="3" stroke-linecap="round" stroke-linejoin="round"/>
<path d="M117.803 208.095L136.6 198.129" stroke="#4A4F43" stroke-width="3" stroke-linecap="round" stroke-linejoin="round"/>
<path d="M159.943 179.537L178.742 169.571" stroke="#4A4F43" stroke-width="3" stroke-linecap="round" stroke-linejoin="round"/>
<path d="M141.001 175.097L159.799 165.132" stroke="#4A4F43" stroke-width="3" stroke-linecap="round" stroke-linejoin="round"/>
<path d="M128.712 192.975L147.51 183.01" stroke="#4A4F43" stroke-width="3" stroke-linecap="round" stroke-linejoin="round"/>
<path d="M104.358 196.484L123.157 186.519" stroke="#4A4F43" stroke-width="3" stroke-linecap="round" stroke-linejoin="round"/>
<path d="M57.5643 226.953L76.3628 216.988" stroke="#4A4F43" stroke-width="3" stroke-linecap="round" stroke-linejoin="round"/>
<path d="M67.2667 209.294L86.0652 199.329" stroke="#4A4F43" stroke-width="3" stroke-linecap="round" stroke-linejoin="round"/>
<path d="M189.986 169.694L208.784 159.727" stroke="#4A4F43" stroke-width="3" stroke-linecap="round" stroke-linejoin="round"/>
<path d="M220.597 148.063L239.396 138.096" stroke="#4A4F43" stroke-width="3" stroke-linecap="round" stroke-linejoin="round"/>
<path d="M171.663 157.252L190.46 147.286" stroke="#4A4F43" stroke-width="3" stroke-linecap="round" stroke-linejoin="round"/>
<path d="M202.959 146.767L221.758 136.802" stroke="#4A4F43" stroke-width="3" stroke-linecap="round" stroke-linejoin="round"/>
<path d="M48.6559 237.462L57.9224 232.607" stroke="#4A4F43" stroke-width="3" stroke-linecap="round" stroke-linejoin="round"/>
<path d="M27.7135 244.924C26.7755 245.925 23.6015 240.771 24.9104 240.06C26.0384 239.447 28.4082 244.18 27.7135 244.924Z" stroke="#4A4F43" stroke-width="0.354194" stroke-linecap="round" stroke-linejoin="round"/>
<path d="M29.5571 248.367C32.6919 246.257 26.4351 234.581 23.0692 236.616C19.7034 238.652 26.2205 250.614 29.5571 248.367Z" stroke="#4A4F43" stroke-width="0.354194" stroke-linecap="round" stroke-linejoin="round"/>
<path d="M31.0245 252.615C31.3639 252.517 32.1948 251.796 32.422 251.467C36.2591 245.917 26.5847 229.783 21.0423 232.827C15.2156 236.026 24.3653 254.533 31.0245 252.615Z" stroke="#4A4F43" stroke-width="0.354194" stroke-linecap="round" stroke-linejoin="round"/>
<path d="M32.9288 255.423C24.2983 259.446 11.2468 234.463 19.858 230.239C28.3164 226.091 41.4534 251.449 32.9288 255.423Z" stroke="#4A4F43" stroke-width="0.354194" stroke-linecap="round" stroke-linejoin="round"/>
<path d="M27.2618 228.666L49.8384 216.749" stroke="#4A4F43" stroke-width="3" stroke-linecap="round" stroke-linejoin="round"/>
<path d="M34.4768 236.89L49.026 229.131" stroke="#4A4F43" stroke-width="3" stroke-linecap="round" stroke-linejoin="round"/>
<path d="M35.3281 257.81C41.2749 254.701 38.1059 243.816 35.2526 238.371C31.4616 231.136 24.2615 224.867 19.4058 226.68" stroke="#4A4F43" stroke-width="1.77238" stroke-linecap="round" stroke-linejoin="round"/>
<path d="M255.707 122.278L244.913 128.035" stroke="#4A4F43" stroke-width="3" stroke-linecap="round" stroke-linejoin="round"/>
<path d="M38.8349 248.049L47.9092 243.21" stroke="#4A4F43" stroke-width="3" stroke-linecap="round" stroke-linejoin="round"/>
<path d="M216.145 159.622C217.728 160.42 219.36 161.127 220.938 161.935C222.457 162.713 227.518 165.79 228.727 165.715C229.466 165.67 235.036 162.432 235.254 161.752C235.887 159.78 230.84 157.682 231.179 156.951C233.42 155.433 249.382 147.204 251.755 145.995C255.592 144.041 258.981 141.753 259.907 136.739C261.588 127.639 251.185 108.603 240.332 112.327C238.706 113.271 237.059 114.194 235.396 115.099C230.937 117.528 212.395 127.164 189.862 138.87C149.379 159.903 28.4551 221.295 20.7259 225.935C19.466 226.691 17.3145 227.757 16.4841 228.819C9.7353 237.45 21.552 258.956 32.1673 258.887C33.9226 258.875 35.4336 257.637 36.9489 256.901C37.0027 256.874 37.0531 256.843 37.107 256.816C42.5197 254.175 177.692 184.704 207.416 169.063C214.642 165.261 219.629 162.648 220.94 161.994" stroke="#4A4F43" stroke-width="6" stroke-linecap="round" stroke-linejoin="round"/>
<path d="M259.215 134.095L248.391 139.729" stroke="#4A4F43" stroke-width="3" stroke-linecap="round" stroke-linejoin="round"/>
</g>
<path d="M50.9295 77.0879C64.7235 70.3188 82.805 71.0181 96.3781 77.8957C98.0774 78.7573 105.82 83.4903 106.544 84.6629C107.914 86.8979 106.815 89.7211 104.016 89.7789C102.815 89.8034 93.2899 86.0102 89.9749 85.587C77.1457 83.9579 49.393 91.9398 48.2083 107.036C47.3565 117.913 55.3244 126.76 66.1268 126.895C112.448 109.044 157.389 86.4291 203.154 66.7345C209.44 65.9277 214.617 68.7531 218.989 73.0586C219.756 73.0396 232.374 67.2914 232.957 66.7975C233.374 66.4411 233.976 63.4385 234.498 62.754C237.691 58.5606 246.024 56.352 249.551 61.2492C250.408 62.4353 256.13 75.2013 256.44 76.6176C256.898 78.7091 254.855 83.3945 253.105 84.6148C249.504 87.1205 203.938 107.012 201.103 107.086C200.265 107.108 197.411 105.853 197.215 105.892C196.922 105.951 193.064 109.226 192.951 109.48C192.548 110.397 195.932 119.201 196.698 120.175C196.925 120.466 202.771 123.801 203.14 123.791C205.062 123.724 211.103 117.871 213.29 120.709C215.478 123.547 210.484 126.933 208.185 128.032C210.385 128.388 215.668 125.947 216.702 129.249C218.342 134.488 206.327 133.972 203.527 134.946C203.099 135.612 209.94 141.578 205.887 143.952C202.636 145.855 199.927 139.258 198.156 138.4C197.276 137.971 194.522 138.594 193.28 138.279C185.734 136.35 182.154 133.226 178.012 126.667C170.472 132.018 162.838 140.13 154.01 143.298C147.8 145.529 138.987 145.283 132.453 146.671C130.17 149.07 136.546 153.252 137.488 153.223C139.37 153.164 143.784 148.114 146.436 150.258C149.548 152.779 144.433 156.588 142.184 157.615C144.307 158.103 149.78 155.655 150.505 159.337C151.503 164.384 140.385 163.253 137.682 164.876C139.608 167.022 143.039 174.157 137.982 173.967C135.35 173.868 134.115 169.285 132.658 168.175C131.343 167.165 121.71 167.641 117.64 162.744C114.862 159.401 113.885 147.255 111.739 146.303C110.863 145.916 94.0476 144.702 92.614 144.812C81.1821 145.662 74.9929 152.037 61.8937 150.194C23.3479 144.766 15.7385 94.3541 50.9295 77.0879Z" fill="#424750"/>
<path d="M159.576 92.5635C162.385 99.154 165.426 105.592 168.693 111.963C170.267 115.032 171.73 118.349 174.393 120.94C174.607 122.118 164.565 130.166 162.902 131.333C160.075 133.317 155.841 136.388 152.703 137.581C147.304 139.633 139.045 139.313 133.3 140.614C132.051 135.936 137.864 121.416 128.321 126.696C127.124 122.319 121.668 115.064 120.455 110.089C133.513 104.304 146.52 98.3525 159.573 92.5554L159.576 92.5635Z" fill="#DDDF8B"/>
<path d="M39.1916 95.3503L45.8376 96.1459C36.5826 109.215 46.1931 130.374 61.9443 132.545C71.9637 133.926 86.9172 125.009 96.3576 120.894L104.968 140.104C102.095 139.856 98.0851 138.92 95.4247 138.93C78.998 138.972 72.7331 149.101 55.0378 141.935C53.5717 134.859 48.6808 127.709 40.8991 131.914C32.331 120.971 31.7368 106.944 39.1916 95.3503Z" fill="#FF9988"/>
<path d="M120.458 110.097C121.667 115.074 127.123 122.329 128.324 126.704C128.992 129.147 126.329 145.128 126.337 149.404L118.714 147.369C118.08 145.284 118.205 142.733 116.672 140.944C115.667 140.042 107.02 140.284 104.973 140.107L96.3628 120.897C104.426 117.385 112.417 113.658 120.462 110.095L120.458 110.097Z" fill="#60ABA1"/>
<path d="M189.5 118.156L181.817 121.6C179.101 117.982 172.689 104.478 168.69 111.964C165.422 105.594 162.381 99.1556 159.573 92.5651C166.677 89.4099 173.715 86.0323 180.954 83.1896C178.481 90.9462 183.762 100.101 191.084 102.978C190.734 105.247 185.962 106.146 185.581 107.543C185.344 108.409 188.855 116.686 189.501 118.16L189.5 118.156Z" fill="#60ABA1"/>
<path d="M56.0537 81.5027C57.842 82.5521 58.1925 84.6529 59.0991 86.4269C54.1623 88.882 49.1192 91.5108 45.8377 96.1456L39.1918 95.35C43.6977 88.3445 48.3087 84.795 56.0537 81.5027Z" fill="#60ABA1"/>
<path d="M189.5 118.156C190.193 119.735 191.154 123.447 191.889 124.426C193.065 125.992 202.108 127.021 198.884 131.146C196.666 133.981 189.63 131.548 187.552 129.723C185.961 128.324 183.329 123.621 181.814 121.601L189.496 118.158L189.5 118.156Z" fill="#85D8E4"/>
<path d="M126.333 149.405C126.332 150.05 125.823 151.834 125.956 152.302C126.942 155.887 132.307 155.013 133.748 158.456C133.693 164.484 124.009 161.213 122.246 158.999C120.912 157.32 119.5 149.953 118.711 147.371L126.333 149.405Z" fill="#85D8E4"/>
<path d="M59.0984 86.4276C58.1918 84.6536 57.8413 82.5528 56.053 81.5034C64.435 77.9353 72.4054 77.643 81.2643 78.8034L69.0539 81.9701C65.7888 83.5499 62.345 84.8174 59.1002 86.4316L59.0984 86.4276Z" fill="#FF9988"/>
<path d="M55.0383 141.934C49.5318 139.702 44.6063 136.648 40.8997 131.913C48.6795 127.704 53.5722 134.858 55.0383 141.934Z" fill="#60ABA1"/>
<path d="M188.74 79.4915C190.315 78.3251 203.332 72.762 205.311 72.4855C211.807 71.5648 215.503 80.1563 218.196 79.71C219.292 79.5288 237.614 71.3599 238.455 70.6295C239.988 69.2931 237.678 64.8868 242.672 64.1263C245.584 63.6834 246.529 69.3797 247.769 71.2807C242.227 73.9438 240.738 76.5349 241.723 82.5911C238.138 83.8783 229.82 80.1739 227.031 81.6274C224.714 82.8356 218.799 92.6435 216.038 94.5257C214.76 95.3939 204.527 100.01 203.114 100.318C199.61 101.085 190.042 96.5355 188.073 93.4301C185.96 90.0989 185.184 82.1416 188.747 79.4977L188.74 79.4915Z" fill="#6AC5C4"/>
<path d="M202.935 81.8116C203.045 81.6896 203.163 81.5739 203.289 81.4644C206.678 78.4768 211.666 83.5385 208.27 86.8821C204.878 90.2199 199.895 85.1564 202.935 81.8116Z" fill="#FDFDFD"/>
<path d="M203.283 81.4644C206.673 78.4768 211.66 83.5385 208.265 86.8821C204.872 90.2199 199.889 85.1564 202.93 81.8116" stroke="#424750" stroke-width="4.97424" stroke-linecap="round" stroke-linejoin="round"/>
<path d="M197.469 103.302L208.189 107.219L256.515 85.315L253.886 77.2872" stroke="#424750" stroke-width="5.30586" stroke-linecap="round" stroke-linejoin="round"/>
<path d="M204.838 103.675C204.838 103.675 217.144 98.3653 218.295 97.6431C220.74 96.112 225.916 87.8622 228.654 85.8233C231.683 83.5682 235.963 87.4813 245.211 85.5787C245.239 85.7095 241.948 77.173 249.853 74.5269L253.365 84.6152C253.365 84.6152 209.916 104.763 208.445 104.862C206.974 104.96 204.838 103.675 204.838 103.675Z" fill="#FFEEEE"/>
<defs>
<clipPath id="clip0_308_4383">
<rect width="259.455" height="138.312" fill="white" transform="matrix(0.64433 -0.764748 -0.764748 -0.64433 106.624 328.726)"/>
</clipPath>
</defs>
</svg>
