<svg width="227" height="126" viewBox="0 0 227 126" fill="none" xmlns="http://www.w3.org/2000/svg">
<path d="M38.7262 0.901176C54.0822 0.366169 70.296 8.40013 79.8687 20.2278C81.0669 21.709 86.1959 29.1947 86.3772 30.5609C86.7132 33.1608 84.5555 35.2876 81.9778 34.1954C80.8724 33.7268 73.7316 26.3693 70.8797 24.6272C59.8391 17.8932 31.2493 13.8254 23.9936 27.1165C18.7673 36.6936 22.4195 48.0261 32.2221 52.567C81.7921 55.2243 132.052 52.9694 181.869 53.7166C187.936 55.5515 191.504 60.2472 193.732 65.9643C194.44 66.2605 208.306 66.1765 209.04 65.9643C209.566 65.8095 211.343 63.3158 212.1 62.9046C216.729 60.3843 225.236 61.7771 226.452 67.6887C226.748 69.1213 226.748 83.1111 226.452 84.5304C226.014 86.6262 222.234 90.0662 220.138 90.4641C215.827 91.2777 166.111 90.7913 163.493 89.6992C162.72 89.3764 160.628 87.0639 160.434 87.0197C160.142 86.9534 155.283 88.3639 155.075 88.5496C154.332 89.2216 153.819 98.6395 154.12 99.8422C154.208 100.2 158.179 105.634 158.519 105.776C160.301 106.501 168.207 103.631 169.043 107.116C169.878 110.6 163.936 111.648 161.389 111.71C163.25 112.934 169.069 112.868 168.662 116.304C168.017 121.755 157.264 116.37 154.31 116.114C153.647 116.547 157.449 124.789 152.78 125.297C149.035 125.704 149.26 118.576 147.996 117.069C147.368 116.317 144.6 115.76 143.596 114.964C137.499 110.118 135.509 105.802 134.413 98.1222C125.344 99.9218 115.06 104.202 105.708 103.481C99.129 102.977 91.1879 99.148 84.6572 97.742C81.5931 98.9977 85.7007 105.422 86.5718 105.78C88.3139 106.497 94.4067 103.693 95.9499 106.735C97.7583 110.308 91.5327 111.692 89.0611 111.71C90.7988 113.023 96.7944 113.027 95.9499 116.684C94.7958 121.698 85.1126 116.118 81.9822 116.494C82.8621 119.24 83.0743 127.154 78.5378 124.912C76.1767 123.745 76.9239 119.058 76.0485 117.449C75.2614 115.99 66.2768 112.483 64.5657 106.351C63.3984 102.164 67.4751 90.6808 65.9054 88.9342C65.2643 88.2224 50.4167 80.2371 49.0637 79.7507C38.284 75.8509 30.029 79.1361 18.8292 72.097C-14.1246 51.3776 -0.44878 2.26301 38.7262 0.901176Z" fill="#424750"/>
<path d="M131.539 59.4606C131.407 66.6235 131.548 73.7422 131.924 80.8918C132.105 84.3362 132.083 87.9619 133.454 91.4151C133.166 92.578 120.711 95.8146 118.717 96.1992C115.326 96.8536 110.205 97.9236 106.854 97.7291C101.088 97.3931 93.682 93.7232 87.9075 92.5603C88.6812 87.7806 99.9252 76.908 89.0571 77.8233C89.7557 73.3398 87.7439 64.4879 88.6724 59.4517C102.954 59.5136 117.258 59.4031 131.539 59.4517V59.4606Z" fill="#DDDF8B"/>
<path d="M20.5451 12.7646L26.2843 16.209C12.4935 24.3491 12.6084 47.5888 26.0942 56.0118C34.672 61.3708 51.9646 59.3501 62.2624 59.4562V80.5072C59.7422 79.1056 56.4658 76.6118 54.0339 75.533C39.0272 68.852 29.1671 75.533 15.9511 61.7554C17.5075 54.6986 15.9688 46.1739 7.14781 46.8283C3.80512 33.3381 9.00044 20.2945 20.5451 12.7646Z" fill="#FF9988"/>
<path d="M88.6722 59.4605C87.7393 64.4967 89.7511 73.3486 89.0569 77.8321C88.6678 80.3347 79.7009 93.8293 77.9588 97.7335L71.835 92.7592C72.1091 90.5971 73.2675 88.32 72.5999 86.0606C72.0516 84.827 64.0619 81.5108 62.2667 80.5116V59.4605C71.0612 59.5534 79.8778 59.4208 88.6766 59.4605H88.6722Z" fill="#60ABA1"/>
<path d="M148.377 95.0544H139.958C138.959 90.6417 138.632 75.6968 131.92 80.8921C131.544 73.7425 131.402 66.6238 131.535 59.4609C139.308 59.4874 147.112 59.284 154.881 59.651C149.451 65.7174 150.526 76.2318 156.03 81.8516C154.784 83.7794 150.061 82.6475 149.142 83.7661C148.571 84.4603 148.39 93.4493 148.377 95.0588V95.0544Z" fill="#60ABA1"/>
<path d="M41.5961 7.02543C42.7988 8.71444 42.2593 10.7749 42.361 12.7645C36.8519 12.9856 31.1747 13.3216 26.2845 16.2089L20.5454 12.7645C27.5225 8.21481 33.182 6.86184 41.5961 7.02543Z" fill="#60ABA1"/>
<path d="M148.377 95.054C148.363 96.7783 147.722 100.559 147.992 101.753C148.425 103.663 156.256 108.301 151.626 110.746C148.443 112.426 143.018 107.328 141.868 104.812C140.988 102.884 140.511 97.5167 139.954 95.054H148.372H148.377Z" fill="#85D8E4"/>
<path d="M77.9546 97.7337C77.6893 98.3218 76.4955 99.7411 76.4248 100.223C75.8588 103.897 81.1115 105.294 81.0187 109.026C78.5029 114.504 71.004 107.558 70.301 104.817C69.7704 102.739 71.4948 95.4389 71.8308 92.7595L77.9546 97.7337Z" fill="#85D8E4"/>
<path d="M42.3607 12.7645C42.259 10.7748 42.7985 8.7144 41.5958 7.02539C50.7041 7.19783 58.0968 10.1912 65.7062 14.8735L53.2686 12.7689C49.6429 12.875 45.9819 12.623 42.3607 12.7689V12.7645Z" fill="#FF9988"/>
<path d="M15.9511 61.7549C11.8391 57.466 8.59378 52.6643 7.14795 46.8279C15.9688 46.1691 17.5075 54.6982 15.9511 61.7549Z" fill="#60ABA1"/>
<path d="M163.498 59.4606C165.413 59.0405 179.566 59.2881 181.485 59.8452C187.79 61.6625 187.649 71.0141 190.289 71.7083C191.363 71.9912 211.424 72.031 212.489 71.7083C214.435 71.1158 214.13 66.1504 218.998 67.4989C221.836 68.286 220.368 73.8704 220.722 76.1121C214.576 76.2757 212.158 78.0311 210.579 83.9604C206.781 83.6686 200.706 76.8859 197.566 77.0716C194.958 77.2264 185.549 83.757 182.259 84.3451C180.738 84.6148 169.512 84.6413 168.097 84.3451C164.586 83.6111 157.715 75.5462 157.189 71.9072C156.623 68.003 159.17 60.4245 163.503 59.4694L163.498 59.4606Z" fill="#6AC5C4"/>
<path d="M175.503 67.3839C175.653 67.3176 175.808 67.2601 175.967 67.2115C180.283 65.8718 182.763 72.5306 178.297 74.193C173.836 75.8511 171.36 69.1923 175.503 67.3839Z" fill="#FDFDFD"/>
<path d="M175.962 67.211C180.278 65.8713 182.758 72.5301 178.293 74.1925C173.831 75.8506 171.355 69.1918 175.498 67.3835" stroke="#424750" stroke-width="4.97424" stroke-linecap="round" stroke-linejoin="round"/>
<path d="M161.725 84.7599L169.905 92.7187L222.963 92.4976L223.848 84.0967" stroke="#424750" stroke-width="5.30586" stroke-linecap="round" stroke-linejoin="round"/>
<path d="M168.296 88.1142C168.296 88.1142 181.698 88.3025 183.044 88.1142C185.901 87.7171 193.999 82.306 197.331 81.5651C201.018 80.7465 203.322 86.0676 212.54 88.1142C212.512 88.2452 213 79.1093 221.296 79.9279L220.374 90.5701C220.374 90.5701 172.485 91.184 171.103 90.6724C169.72 90.1607 168.296 88.1142 168.296 88.1142Z" fill="#FFEEEE"/>
</svg>
