<svg width="219" height="165" viewBox="0 0 219 165" fill="none" xmlns="http://www.w3.org/2000/svg">
<g clip-path="url(#clip0_299_23087)">
<path d="M102.745 114.48C103.155 121.89 102.745 128.67 108.745 135.86C113.235 141.24 119.655 141.88 122.655 145.15C122.805 145.31 123.055 145.37 123.185 145.52C123.305 145.66 123.285 145.92 123.405 146.08C137.705 164.32 147.465 161.91 169.985 159.09C186.235 157.06 186.695 149.85 193.825 139.36C193.945 139.19 193.845 138.88 193.945 138.74C195.945 136.18 205.905 133.25 209.065 130.75C221.985 120.54 210.585 107.67 205.935 96.64L204.545 96.4C196.895 105.15 188.125 106.37 185.725 119.02C185.345 121.05 186.255 125.78 185.355 127.43C185.255 127.61 185.355 127.9 185.265 128.04C184.475 129.21 162.655 142.67 161.275 142.94C161.085 142.98 160.955 143.22 160.805 143.23C160.655 143.24 160.475 143.03 160.285 143.03C158.975 143.03 136.705 134.64 135.675 133.83C135.525 133.71 135.275 133.74 135.155 133.63C135.035 133.52 135.045 133.26 134.915 133.13C134.165 132.34 125.695 114.63 125.565 113.55L102.775 114.47" fill="#6B964E"/>
<path d="M161.165 143.18L160.165 156.45" stroke="#43474F" stroke-width="6.51" stroke-linecap="round" stroke-linejoin="round"/>
<path d="M135.265 134.26L135.795 134.44C136.845 135.23 159.325 143.03 160.635 143L161.165 143.18" stroke="#43474F" stroke-width="6.51" stroke-linecap="round" stroke-linejoin="round"/>
<path d="M135.265 134.26L123.625 146.44" stroke="#43474F" stroke-width="6.51" stroke-linecap="round" stroke-linejoin="round"/>
<path d="M194.185 137.83L194.075 138.45C187.225 149.12 186.945 156.34 170.755 158.79C148.315 162.19 138.615 164.86 123.845 146.99L123.615 146.44" stroke="#43474F" stroke-width="6.51" stroke-linecap="round" stroke-linejoin="round"/>
<path d="M185.225 127.36C184.465 128.55 163.005 142.57 161.625 142.88L161.165 143.18" stroke="#43474F" stroke-width="6.51" stroke-linecap="round" stroke-linejoin="round"/>
<path d="M185.225 127.36L194.185 137.83" stroke="#43474F" stroke-width="6.51" stroke-linecap="round" stroke-linejoin="round"/>
<path d="M185.225 127.36L185.305 126.75C186.165 125.08 185.125 120.37 185.455 118.34C187.525 105.63 196.265 104.18 203.685 95.24L205.085 95.44C210.025 106.34 221.755 118.91 209.105 129.46C206.005 132.04 196.125 135.23 194.195 137.84" stroke="#43474F" stroke-width="6.51" stroke-linecap="round" stroke-linejoin="round"/>
<path d="M124.905 113.94L125.155 114.44C125.315 115.51 134.245 133 135.015 133.77L135.265 134.27" stroke="#43474F" stroke-width="6.51" stroke-linecap="round" stroke-linejoin="round"/>
<path d="M102.375 114.5L124.905 113.94" stroke="#43474F" stroke-width="6.51" stroke-linecap="round" stroke-linejoin="round"/>
<path d="M102.265 114.53C103.055 122.49 102.365 129.68 108.945 137.16C113.575 142.42 120.015 142.9 123.085 146.09L123.625 146.45" stroke="#43474F" stroke-width="6.51" stroke-linecap="round" stroke-linejoin="round"/>
<path d="M4.99512 111.65H173.985" stroke="#43474F" stroke-width="8.07" stroke-linecap="round" stroke-linejoin="round"/>
<path d="M49.5852 43C60.1007 43 68.6252 34.4755 68.6252 23.96C68.6252 13.4445 60.1007 4.92004 49.5852 4.92004C39.0697 4.92004 30.5452 13.4445 30.5452 23.96C30.5452 34.4755 39.0697 43 49.5852 43Z" stroke="#43474F" stroke-width="8.45" stroke-linecap="round" stroke-linejoin="round"/>
<path d="M129.095 42.31C139.611 42.31 148.135 33.7855 148.135 23.27C148.135 12.7545 139.611 4.22998 129.095 4.22998C118.58 4.22998 110.055 12.7545 110.055 23.27C110.055 33.7855 118.58 42.31 129.095 42.31Z" stroke="#43474F" stroke-width="8.45" stroke-linecap="round" stroke-linejoin="round"/>
<path d="M81.0352 49.3C102.355 45.08 121.905 77.46 84.7252 87.3C75.3452 89.78 96.4552 81.75 96.4552 81.75" stroke="#43474F" stroke-width="8.45" stroke-linecap="round" stroke-linejoin="round"/>
</g>
<defs>
<clipPath id="clip0_299_23087">
<rect width="217.07" height="164.52" fill="white" transform="translate(0.965088)"/>
</clipPath>
</defs>
</svg>
