<svg width="175" height="200" viewBox="0 0 175 200" fill="none" xmlns="http://www.w3.org/2000/svg">
<path d="M117.777 135.99C119.927 131.57 121.737 122.6 122.587 117.59C123.407 117.79 124.087 117.45 124.837 117.27C134.987 114.8 167.467 98.2 165.787 121.93C165.397 127.47 145.877 154.91 141.207 160.26C133.807 168.75 127.737 171.79 119.127 178.16C118.687 178.49 115.647 180.4 115.677 180.61L116.947 181.78C116.427 181.77 115.877 181.94 115.347 181.94L114.947 181.98C112.947 161.29 133.937 146.52 143.017 129.57C135.097 130.8 127.507 134.6 119.697 136.2C118.927 136.36 118.227 136.91 117.787 135.97L117.777 135.99Z" fill="#6AC5C4"/>
<path d="M52.4667 118.42C53.5867 124.72 54.9867 130.95 57.8267 136.72C57.8967 136.85 57.9567 136.99 58.0167 137.12C57.9467 136.99 57.8867 136.85 57.8267 136.72C56.8467 137.25 56.0667 136.84 55.1367 136.63C47.3767 134.94 39.8667 130.94 31.9867 129.62C38.6467 142.08 50.8767 153.31 57.1067 165.79C59.2567 170.09 61.0667 175.33 57.8967 179.59L57.5367 179.35C43.7267 171.9 34.8367 162.5 25.7267 149.97C21.2267 143.78 7.70673 125.58 9.20672 118.75C13.1967 100.55 38.9267 113.6 49.9667 117.73C50.7667 118.03 51.6067 118.37 52.4667 118.4V118.42Z" fill="#6AC5C4"/>
<path d="M116.867 78.5601C115.127 73.5901 114.357 70.4501 113.807 65.1001L115.667 65.0001C119.457 65.0701 135.697 65.7301 137.637 63.4401C140.837 59.6601 142.667 31.7901 146.157 28.7801C146.267 28.6901 146.267 28.4801 146.367 28.4001C146.967 27.9501 153.107 27.0401 154.587 26.6201L154.647 26.7301C153.157 35.1401 150.207 68.5001 146.257 73.3101C141.597 78.9701 126.197 77.7601 118.837 78.1501C118.087 78.1901 117.457 77.7601 116.877 78.5501L116.867 78.5601Z" fill="#FF9988"/>
<path d="M109.017 33.5201C104.437 33.5901 99.8867 39.9101 101.067 44.6401C102.627 50.8901 107.757 50.9901 112.967 50.7801L113.447 50.7601C112.917 52.1901 113.587 62.8701 113.817 65.1001C114.367 70.4501 115.147 73.5901 116.877 78.5601C122.517 94.6801 125.607 99.7301 122.587 117.59C121.737 122.59 119.927 131.57 117.777 135.99C113.407 144.97 97.9867 164.27 86.8467 163.27C87.2767 162.56 87.1667 161.85 87.2167 161.06C89.4267 127.21 87.2167 88.4301 87.2167 54.0301C80.2067 55.3301 80.6667 42.0201 74.0367 43.4801C74.4867 38.3301 70.7467 35.8201 66.7767 33.7501L66.3967 33.5201L66.5067 33.0401C68.7367 21.9801 75.5267 10.4701 86.8267 7.02011L87.2267 6.86011C99.2267 10.0101 105.687 22.0101 108.897 33.1301L109.017 33.5401V33.5201Z" fill="#DDDF8B"/>
<path d="M61.4067 50.77C61.5367 50.83 61.7267 50.73 61.8767 50.79C66.7767 52.67 73.5467 49.11 74.0367 43.46C74.0367 43.29 86.4467 43.29 86.4467 43.29C86.4467 53.44 86.7067 64.91 87.0167 76.91C87.7567 105.55 88.7767 137.19 87.2167 161.05C87.1667 161.84 87.2767 162.55 86.8467 163.26C75.2267 162.21 62.8967 146.83 58.0167 137.12C57.9467 136.99 57.8867 136.85 57.8267 136.72C54.9867 130.95 53.5967 124.72 52.4667 118.42C49.1467 99.84 52.2267 95.16 58.0767 78.29C57.2667 77.87 56.4267 78.14 55.5967 78.13C48.8667 78.01 33.3367 78.61 28.8867 73.72C24.0667 68.42 22.0367 37.87 20.8267 29.61L20.7167 29.25L20.3167 29.36L20.1267 29.12L20.5567 28.44L20.7267 28.66L20.7867 29.13L21.1267 29.15C23.7767 28.45 26.5467 27.89 29.1467 27.04L29.6267 28.7C32.1667 35.14 33.9067 58.64 37.1967 63.05C39.6167 66.31 54.3867 64.71 58.7767 65.45L60.7567 65.37C61.3367 60.48 61.5967 55.69 61.4267 50.77H61.4067Z" fill="#FF9988"/>
<path d="M121.737 101.47C121.737 101.47 129.107 145.68 87.7068 164.96L90.1368 78.5901H116.907L121.727 101.47H121.737Z" fill="#60ABA1"/>
<path d="M114.937 181.99L115.337 181.95C115.867 181.95 116.407 181.77 116.937 181.79C126.247 182.05 137.727 178.75 147.277 178.68" stroke="#424750" stroke-width="4.74" stroke-linecap="round" stroke-linejoin="round"/>
<path d="M114.937 181.99L149.937 196.03" stroke="#424750" stroke-width="4.74" stroke-linecap="round" stroke-linejoin="round"/>
<path d="M27.2167 176.43L57.5167 177.34C59.4867 177.34 60.5567 179.88 59.2167 181.29C55.0967 185.97 49.4267 188.96 43.7867 191.19C36.8867 193.79 30.5567 196.03 24.2667 199.19C18.9267 198.39 21.4067 193.77 25.6767 193.33C35.7967 188.09 48.0167 186.65 55.6767 178.13L57.3767 182.08L27.0767 181.17C23.9667 181 24.0867 176.42 27.2167 176.43Z" fill="#424750"/>
<path d="M55.1267 136.64C47.3667 134.95 39.8567 130.95 31.9767 129.63C38.6367 142.09 50.8667 153.32 57.0967 165.8C59.2467 170.1 61.0567 175.34 57.8867 179.6" stroke="#424750" stroke-width="4.74" stroke-linecap="round" stroke-linejoin="round"/>
<path d="M119.687 136.21C127.497 134.6 135.077 130.81 143.007 129.58C133.927 146.53 112.937 161.29 114.937 181.99" stroke="#424750" stroke-width="4.74" stroke-linecap="round" stroke-linejoin="round"/>
<path d="M49.9667 117.75C38.9267 113.63 13.1967 100.58 9.20672 118.77C7.70672 125.6 21.2267 143.8 25.7267 149.99C34.8267 162.51 43.7267 171.91 57.5367 179.37L57.8967 179.61" stroke="#424750" stroke-width="4.74" stroke-linecap="round" stroke-linejoin="round"/>
<path d="M61.4068 50.77C61.5668 55.69 61.3168 60.48 60.7368 65.37C60.1568 70.26 59.7368 73.52 58.0768 78.29C52.2268 95.16 49.1468 99.84 52.4668 118.42C53.5868 124.72 54.9868 130.95 57.8268 136.72C57.8968 136.85 57.9568 136.99 58.0168 137.12C62.8968 146.83 75.2268 162.22 86.8468 163.26C98.4668 164.3 113.407 144.96 117.777 135.98C119.927 131.56 121.737 122.59 122.587 117.58C125.607 99.72 122.517 94.67 116.877 78.55C115.137 73.58 114.367 70.44 113.817 65.09C113.587 62.85 112.917 52.17 113.447 50.75" stroke="#424750" stroke-width="4.74" stroke-linecap="round" stroke-linejoin="round"/>
<path d="M119.117 178.16C127.727 171.79 133.797 168.75 141.197 160.26C145.867 154.9 165.387 127.47 165.777 121.93C167.457 98.2 134.977 114.8 124.827 117.27" stroke="#424750" stroke-width="4.74" stroke-linecap="round" stroke-linejoin="round"/>
<path d="M146.367 28.4099L146.157 28.7899C142.677 31.7999 140.837 59.6699 137.637 63.4499C135.687 65.7499 119.457 65.0899 115.667 65.0099" stroke="#424750" stroke-width="4.74" stroke-linecap="round" stroke-linejoin="round"/>
<path d="M41.6167 21.6699C37.5067 23.6599 33.4967 25.6099 29.1367 27.0299C26.5367 27.8799 23.7667 28.4399 21.1167 29.1399L20.7167 29.2499L20.3167 29.3599L19.9167 29.4699" stroke="#424750" stroke-width="4.74" stroke-linecap="round" stroke-linejoin="round"/>
<path d="M146.367 28.4101L133.237 21.6101" stroke="#424750" stroke-width="4.74" stroke-linecap="round" stroke-linejoin="round"/>
<path d="M29.6167 28.6899C32.1567 35.1299 33.8967 58.6299 37.1867 63.0399C39.6067 66.2999 54.3767 64.6999 58.7667 65.4399" stroke="#424750" stroke-width="4.74" stroke-linecap="round" stroke-linejoin="round"/>
<path d="M109.017 33.52L109.477 33.73C114.917 34.02 119.447 40.38 117.277 45.85C116.427 48 114.347 49.08 113.747 50.4L113.447 50.76" stroke="#424750" stroke-width="4.74" stroke-linecap="round" stroke-linejoin="round"/>
<path d="M66.3868 33.51C57.5068 33.82 53.2268 46.14 61.0968 50.42L61.4068 50.78" stroke="#424750" stroke-width="4.74" stroke-linecap="round" stroke-linejoin="round"/>
<path d="M87.2167 6.8501L86.8167 7.0101C75.5167 10.4701 68.7167 21.9801 66.4967 33.0301L66.3867 33.5101" stroke="#424750" stroke-width="4.74" stroke-linecap="round" stroke-linejoin="round"/>
<path d="M109.017 33.5201L108.897 33.1101C105.687 21.9901 99.2267 9.99009 87.2267 6.84009" stroke="#424750" stroke-width="4.74" stroke-linecap="round" stroke-linejoin="round"/>
<path d="M87.2167 6.8501V54.0301C87.2167 88.4301 89.4167 127.22 87.2167 161.06" stroke="#424750" stroke-width="4.74" stroke-linecap="round" stroke-linejoin="round"/>
<path d="M15.3967 3L20.7167 28.65L20.7767 29.12L20.8167 29.6C22.0267 37.85 24.0567 68.41 28.8767 73.71C33.3267 78.6 48.8567 78.01 55.5867 78.12" stroke="#424750" stroke-width="4.74" stroke-linecap="round" stroke-linejoin="round"/>
<path d="M19.9067 29.4601L20.1167 29.1201L20.5467 28.4401C24.7367 21.7501 28.9267 15.0501 33.1167 8.36011" stroke="#424750" stroke-width="4.74" stroke-linecap="round" stroke-linejoin="round"/>
<path d="M109.017 33.52C104.437 33.59 99.8867 39.91 101.067 44.64C102.627 50.89 107.757 50.99 112.967 50.78L113.447 50.76" stroke="#424750" stroke-width="4.74" stroke-linecap="round" stroke-linejoin="round"/>
<path d="M152.467 25.26L141.707 7.95996" stroke="#424750" stroke-width="4.74" stroke-linecap="round" stroke-linejoin="round"/>
<path d="M19.9067 29.4601L2.89673 18.3101" stroke="#424750" stroke-width="4.74" stroke-linecap="round" stroke-linejoin="round"/>
<path d="M159.857 3.01001C158.657 11 156.057 18.83 154.647 26.75C153.157 35.16 150.207 68.52 146.257 73.33C141.597 78.99 126.197 77.78 118.837 78.17" stroke="#424750" stroke-width="4.74" stroke-linecap="round" stroke-linejoin="round"/>
<path d="M171.917 18.3101C165.967 23.2701 161.667 24.6401 154.587 26.6301C153.107 27.0501 146.967 27.9601 146.367 28.4101" stroke="#424750" stroke-width="4.74" stroke-linecap="round" stroke-linejoin="round"/>
<path d="M66.3867 33.51L66.7667 33.74C70.7367 35.81 74.4767 38.32 74.0267 43.47C73.5367 49.12 66.7667 52.68 61.8667 50.8L61.3967 50.78" stroke="#424750" stroke-width="4.74" stroke-linecap="round" stroke-linejoin="round"/>
<path d="M64.0767 34.9901C64.2667 34.9601 64.4567 34.9401 64.6467 34.9301C74.4167 34.1301 75.8267 49.2301 65.8367 50.0501C56.2367 50.8301 54.6067 36.4901 64.0767 35.0001V34.9901Z" fill="#FDFDFD" stroke="#424851" stroke-width="6.73" stroke-linecap="round" stroke-linejoin="round"/>
<path d="M107.897 34.9901C108.087 34.9601 108.277 34.9401 108.467 34.9301C118.237 34.1301 119.647 49.2301 109.657 50.0501C100.057 50.8301 98.4271 36.4901 107.897 35.0001V34.9901Z" fill="#FDFDFD" stroke="#424851" stroke-width="6.73" stroke-linecap="round" stroke-linejoin="round"/>
</svg>
