<svg width="194" height="166" viewBox="0 0 194 166" fill="none" xmlns="http://www.w3.org/2000/svg">
<path d="M37.5969 37.3543C27.422 31.9276 17.5297 44.9854 13.8554 52.1927C6.73301 45.0702 4.38713 46.116 4.10449 47.5292V105.187C23.0411 119.46 63.2886 142.325 72.7851 119.601C84.6559 91.1965 101.19 92.0444 113.909 105.187C126.627 118.33 170.719 91.1965 182.589 72.5425C194.46 53.8885 161.392 52.1927 138.074 61.0957C114.757 69.9988 118.996 37.3543 101.19 37.3543C83.384 37.3543 81.2642 57.7041 66.0019 72.5425C50.7395 87.3809 50.3155 44.1375 37.5969 37.3543Z" fill="#5BAF85" stroke="#43474F" stroke-width="6.78327"/>
<path d="M77.4101 50.0251C77.9528 50.449 77.1388 53.1369 77.2151 53.2726C77.4695 53.722 84.7021 57.546 86.1097 58.6907C90.7308 62.4215 95.3264 68.2382 95.9793 74.2583C94.8685 74.8773 87.7122 78.3622 87.7461 78.8794C89.4165 82.3304 101.508 86.4767 100.312 90.411C99.4218 93.3447 88.6703 98.322 85.9909 100.569C81.5055 97.6182 88.2634 93.9637 85.7366 91.1402C84.3714 89.6139 77.639 86.6463 75.4769 87.9351C70.1011 91.1317 63.072 103.681 61.2405 109.752C61.1981 109.887 61.1218 110.006 61.0879 110.142C55.1779 109.743 49.8531 106.182 44.0703 105.885C44.7147 100.221 45.8933 94.6081 47.8605 89.2493C49.2256 85.5355 57.6877 70.6208 57.6877 69.5185C57.6877 68.0431 53.338 62.023 52.1679 60.5052C49.6326 57.2153 49.87 58.6737 45.9018 57.1645C54.8303 38.9683 55.4747 50.5253 65.8107 59.1571C66.9893 59.3775 75.5617 51.3563 77.4186 50.0251H77.4101Z" fill="#DEE096"/>
<path d="M147.43 29.3701L147.04 51.3394C133.033 52.6876 108.893 67.1106 95.9793 74.2584C95.3264 68.2298 90.7307 62.4216 86.1096 58.6908C84.6936 57.5461 77.4694 53.7305 77.2151 53.2727C77.1387 53.1285 77.9527 50.4491 77.4101 50.0252C102.813 31.7782 117.991 31.3881 147.43 29.3701Z" fill="#F59F8E"/>
<path d="M61.2404 109.752C61.198 109.887 61.1217 110.006 61.0878 110.142C48.7507 152.766 105.179 166.282 111.454 130.254C111.64 129.16 110.996 119.528 114.023 120.758C121.561 123.827 116.473 142.066 112.929 147.272C87.8817 184.037 38.9574 150.528 44.0703 105.877C49.8615 106.174 55.1779 109.735 61.0878 110.133C61.1302 109.998 61.2065 109.879 61.2404 109.743V109.752Z" fill="#81C4C4"/>
<path d="M147.04 51.3393L147.43 29.37C155.842 28.7934 157.885 22.2221 168.323 25.2661C170.892 26.0123 185.959 32.4564 187.664 33.7791C190.775 36.1787 191.963 40.6472 189.749 43.988C187.24 47.7781 165.923 55.7654 160.971 55.2058C154.519 54.4766 154.205 50.6525 147.049 51.3393H147.04Z" fill="#81C4C4"/>
<path d="M163.269 34.1692C163.405 34.1438 163.549 34.1353 163.685 34.1184C170.926 33.5248 171.977 44.7257 164.567 45.3277C157.156 45.9297 156.24 35.2715 163.261 34.1692H163.269Z" fill="#FEFEFE" stroke="#434850" stroke-width="4.99418" stroke-linecap="round" stroke-linejoin="round"/>
<path d="M131.795 3L130.659 11.8946L139.07 6.79864" stroke="#43474F" stroke-width="4.99418" stroke-linecap="round" stroke-linejoin="round"/>
<path d="M52.1678 60.5137C53.3379 62.0314 57.6877 68.0516 57.6877 69.527C57.6877 70.6292 49.2256 85.544 47.8604 89.2578C45.8933 94.6166 44.7147 100.23 44.0703 105.894C38.9574 150.545 87.8817 184.054 112.929 147.289C116.482 142.074 121.569 123.844 114.023 120.775C110.996 119.545 111.649 129.177 111.454 130.271C105.179 166.299 48.7507 152.783 61.0878 110.159C61.1302 110.023 61.2065 109.904 61.2404 109.769C63.0719 103.698 70.1011 91.1486 75.4768 87.952C77.639 86.6632 84.3714 89.6309 85.7365 91.1571" stroke="#434850" stroke-width="4.99418" stroke-linecap="round" stroke-linejoin="round"/>
<path d="M145.497 73.775L156.139 68.0093" stroke="#43474F" stroke-width="4.99418" stroke-linecap="round" stroke-linejoin="round"/>
<path d="M151.755 74.6483L154.256 79.1423C155.409 81.1179 157.69 84.8317 154.578 85.527C152.408 85.9594 150.932 83.1953 149.898 81.5673L147.397 77.0734C145.87 74.1565 150.085 71.8163 151.755 74.6483Z" fill="#43474F"/>
<path d="M129.862 58.3176C131.311 61.4125 130.531 71.8248 133.118 73.4698C135.967 75.2758 153.374 73.0882 157.868 75.1062" stroke="#43474F" stroke-width="4.99418" stroke-linecap="round" stroke-linejoin="round"/>
<path d="M45.3252 58.3346L45.7068 57.5545L45.9018 57.1645C54.8302 38.9683 55.4747 50.5254 65.8107 59.1571C66.9893 59.3775 75.5616 51.3563 77.4186 50.0251C102.822 31.7781 117.999 31.388 147.439 29.37C155.85 28.7934 157.894 22.2221 168.331 25.2661C170.901 26.0123 185.968 32.4564 187.672 33.7791C190.784 36.1787 191.971 40.6472 189.758 43.988C187.248 47.7781 165.932 55.7654 160.98 55.2058C154.527 54.4766 154.214 50.6525 147.057 51.3393C133.05 52.6875 108.91 67.1105 95.9963 74.2583C94.8855 74.8773 87.7291 78.3622 87.763 78.8794C89.4334 82.3304 101.525 86.4767 100.329 90.411C99.4387 93.3448 88.6873 98.322 86.0079 100.569L85.6602 100.789" stroke="#43474F" stroke-width="4.99418" stroke-linecap="round" stroke-linejoin="round"/>
<path d="M43.3496 48.4564L46.6818 56.5285C47.5382 58.4871 45.4778 60.5984 43.5106 59.8184L33.7088 56.2148C30.6479 55.0022 32.3098 50.4744 35.4301 51.5343L45.2319 55.1379L42.0607 58.4278L38.7285 50.3557C37.8212 48.4818 35.2605 44.9291 38.508 43.9031C40.9754 43.2417 42.4338 46.5486 43.3496 48.4479V48.4564Z" fill="#43474F"/>
<path d="M126.368 26.9703V24.2655C126.173 22.3238 125.402 18.8728 128.039 18.4065C131.184 18.0843 131.1 22.0949 131.362 24.2655V26.9703C131.278 30.2602 126.453 30.2602 126.368 26.9703Z" fill="#43474F"/>
<path d="M85.6434 100.789L82.3196 110.447" stroke="#43474F" stroke-width="4.99418" stroke-linecap="round" stroke-linejoin="round"/>
<path d="M85.6433 100.789L91.8161 109.87" stroke="#43474F" stroke-width="4.99418" stroke-linecap="round" stroke-linejoin="round"/>
<path d="M45.3251 58.3346L35.7522 62.3876" stroke="#43474F" stroke-width="4.99418" stroke-linecap="round" stroke-linejoin="round"/>
<path d="M118.11 30.4468C118.474 27.2078 116.304 19.8734 118.805 17.6095C119.178 17.2788 127.004 13.4717 127.479 13.4039C129.785 13.0817 136.45 16.0154 139.265 16.1087" stroke="#43474F" stroke-width="4.99418" stroke-linecap="round" stroke-linejoin="round"/>
<path d="M89.8999 101.061L96.6408 103.757" stroke="#43474F" stroke-width="4.99418" stroke-linecap="round" stroke-linejoin="round"/>
<path d="M140.8 54.4342L141.309 65.6521" stroke="#43474F" stroke-width="4.99418" stroke-linecap="round" stroke-linejoin="round"/>
</svg>
