<svg width="187" height="160" viewBox="0 0 187 160" fill="none" xmlns="http://www.w3.org/2000/svg">
<path d="M47.3612 65.2362L27.1603 60.0103C24.6278 59.3551 22.1584 61.267 22.1584 63.8828V77.0262C22.1584 78.9432 23.5184 80.5906 25.4006 80.9538L49.5261 85.6091C53.0523 86.2896 56.8602 93.1725 57.4476 96.7155C58.9952 106.049 66.2751 119.231 78.296 122.813C122.115 135.869 141.673 96.964 174.983 96.8854C178.831 96.8763 181.781 92.0695 179.334 89.0996C144.742 47.1205 127.919 40.5554 116.055 36.7845C90.1381 28.5468 67.6186 44.1391 60.3828 56.8147C58.4656 60.1733 51.1052 66.2048 47.3612 65.2362Z" fill="#5BAF85" stroke="#4A4F43" stroke-width="8"/>
<path d="M147.873 91.7367C146.893 90.069 145.509 88.5245 144.568 86.8347C144.523 86.7509 144.448 86.6733 144.403 86.5896C137.791 74.6407 144.357 66.3957 155.432 59.7964C156.141 62.5882 152.216 79.4819 159.63 74.3096C164.915 70.6294 165.513 63.5362 168.439 58.5821C180.458 70.5093 175.416 90.8307 155.889 92.0315C153.695 92.1657 149.591 91.2142 147.868 91.7406L147.873 91.7367Z" fill="#F59F8E"/>
<path d="M93.4039 33.4666C93.4019 33.3737 93.3288 33.2793 93.3174 33.1857C93.294 32.8889 92.7137 32.0835 92.5711 31.6169L88.0331 29.8677C89.0199 29.2271 90.0727 28.7097 90.9063 27.9092C90.5309 26.9182 89.184 24.6772 89.1254 23.9351C88.7332 19.2223 94.3015 12.8134 98.6793 10.6186C107.805 6.05232 121.89 8.70467 127.777 16.7188L127.515 17.317C119.548 18.0079 111.917 18.9326 106.236 24.4433L122.703 28.1564C123.998 30.1698 116.698 34.3992 115.005 35.1387C107.953 38.2379 99.8401 38.1502 93.5123 33.4163L93.4082 33.4711L93.4039 33.4666Z" fill="#56B0CB"/>
<path d="M111.636 79.476C111.093 80.9628 109.575 84.3951 108.67 85.6038C108.607 85.683 108.557 85.7676 108.494 85.8468C104.824 90.5217 90.3227 99.0855 84.3184 101.733C80.2003 103.55 61.0859 108.608 59.6861 109.764C59.6153 109.817 59.6284 109.949 59.5613 110.015C59.1492 110.412 54.7191 119.373 54.6612 119.912C54.6538 120.005 54.5381 120.084 54.5364 120.164C54.5347 120.244 54.6412 120.337 54.6432 120.43C54.6752 121.09 59.3293 132.372 59.8155 132.88C59.8856 132.953 59.8602 133.09 59.9222 133.145C59.9842 133.201 60.1386 133.171 60.2239 133.233C60.8527 133.68 74.6623 137.771 75.4514 137.704C75.5471 137.695 75.6335 137.567 75.7444 137.546C76.7804 137.365 78.4707 135.494 79.4664 134.988C85.7575 131.85 89.5197 134.841 96.0777 134.979L96.489 135.59C93.5013 140.932 92.2175 149.46 83.0883 147.756C80.8515 147.339 75.9186 144.434 74.0902 144.489C73.9901 144.493 73.898 144.634 73.7834 144.641C66.6746 145.264 63.4241 147.396 56.5535 141.788C47.0232 134.003 42.3916 131.014 44.8892 119.636C44.9112 119.541 45.0312 119.466 45.0481 119.375C45.0657 119.275 44.999 119.16 45.0122 119.056C45.3045 116.853 43.1992 114.165 43.8399 110.708C44.9273 104.782 49.6204 103.138 53.232 99.1835C63.4532 87.9793 73.8231 71.5326 88.8531 64.884C91.0746 63.9041 93.1197 63.1671 95.5975 62.8363C98.2239 62.4879 100.128 63.0764 101.716 62.8886C101.817 62.8757 101.9 62.7812 102.011 62.7607C103.967 62.4297 105.033 60.3442 106.691 59.4579C114.77 55.1229 123.403 64.3147 117.247 70.5386C115.949 71.8462 113.398 72.3736 112.76 73.9161C112.714 74.0219 112.58 74.0912 112.548 74.1941C112.522 74.2763 112.593 74.3959 112.567 74.4866C112.134 76.1342 112.534 77.0606 111.645 79.4767L111.636 79.476Z" fill="#81C4C4"/>
<path d="M93.1323 33.5974C93.1515 35.701 87.2908 44.3412 87.3729 46.3112C87.3762 46.3871 87.4975 46.4684 87.5089 46.5618C87.9057 49.6755 94.5881 58.0359 95.601 61.7291L96.1902 62.9329C93.72 63.2628 91.6812 63.9974 89.4664 64.9743C88.9615 64.6014 88.706 64.072 88.3597 63.6109C84.9904 59.1342 77.0531 45.7409 77.3215 40.6673C77.5551 36.3181 84.1507 32.3493 87.7698 29.9936L92.2978 31.7389C92.44 32.2045 93.019 33.0081 93.0424 33.3043C93.0487 33.4015 93.126 33.5002 93.1287 33.5845L93.1323 33.5974Z" fill="#FCE176"/>
<path d="M147.712 91.9712C147.62 92.0015 147.567 92.1275 147.464 92.1655C141.678 94.207 138.678 103.023 129.489 97.8448C123.14 94.2706 115.339 91.8443 110.037 86.2656L108.687 85.572C108.75 85.493 108.799 85.4088 108.862 85.3298C109.769 84.1294 111.278 80.7035 111.819 79.2213C112.321 79.4006 112.66 79.7728 113.078 80.0462C115.263 81.4842 126.511 88.9481 127.999 89.3418C128.101 89.3669 128.168 89.4816 128.256 89.5013C130.507 89.9483 139.783 87.1384 142.812 87.2742L144.24 86.8348C144.285 86.9183 144.36 86.9958 144.405 87.0793C145.343 88.7653 146.724 90.3064 147.703 91.9704L147.712 91.9712Z" fill="#FCE176"/>
<path d="M116.183 65.7329C116.183 65.7329 116.223 65.7656 116.241 65.7838C117.268 66.692 115.656 68.1488 114.602 67.2215C113.549 66.2943 115.097 64.9167 116.179 65.7283L116.183 65.7329Z" fill="#FEFEFE" stroke="#434850" stroke-width="1.77" stroke-miterlimit="10"/>
<path d="M111.974 61.3328C111.974 61.3328 112.014 61.3656 112.032 61.3838C113.058 62.292 111.447 63.7487 110.393 62.8215C109.339 61.8943 110.888 60.5166 111.97 61.3283L111.974 61.3328Z" fill="#FEFEFE" stroke="#434850" stroke-width="1.77" stroke-miterlimit="10"/>
<path d="M59.6381 133.339L53.4594 137.1" stroke="#43474F" stroke-width="5.5" stroke-linecap="round" stroke-linejoin="round"/>
<path d="M54.3425 120.428L54.4486 120.693C54.4804 121.349 59.1044 132.561 59.5875 133.066L59.6935 133.33" stroke="#43474F" stroke-width="5.5" stroke-linecap="round" stroke-linejoin="round"/>
<path d="M54.398 120.469L44.9238 119.677" stroke="#43474F" stroke-width="5.5" stroke-linecap="round" stroke-linejoin="round"/>
<path d="M73.674 144.629L73.3693 144.78C66.3112 145.399 63.0839 147.516 56.2623 141.946C46.8 134.215 42.2015 131.246 44.6813 119.944L44.8391 119.685" stroke="#43474F" stroke-width="5.5" stroke-linecap="round" stroke-linejoin="round"/>
<path d="M75.1019 137.807C74.311 137.877 60.5646 133.8 59.9385 133.355L59.6381 133.267" stroke="#43474F" stroke-width="5.5" stroke-linecap="round" stroke-linejoin="round"/>
<path d="M75.0654 137.745L73.7105 144.519" stroke="#43474F" stroke-width="5.5" stroke-linecap="round" stroke-linejoin="round"/>
<path d="M75.0684 137.654L75.3614 137.497C76.397 137.315 78.0869 135.445 79.0823 134.939C85.3719 131.801 89.1331 134.791 95.6894 134.93L96.1006 135.541C93.1137 140.881 91.8302 149.407 82.7033 147.703C80.4671 147.286 75.5354 144.383 73.7075 144.437" stroke="#43474F" stroke-width="5.5" stroke-linecap="round" stroke-linejoin="round"/>
<path d="M59.6005 110.008L59.4754 110.26C59.0627 110.657 54.6264 119.632 54.5685 120.172L54.4434 120.424" stroke="#43474F" stroke-width="5.5" stroke-linecap="round" stroke-linejoin="round"/>
<path d="M53.1016 102.219L59.6597 110.008" stroke="#43474F" stroke-width="5.5" stroke-linecap="round" stroke-linejoin="round"/>
<path d="M102.023 62.9767C100.429 63.1654 98.5173 62.5743 95.8807 62.9242C93.3933 63.2565 91.3403 63.9967 89.1101 64.981C74.0217 71.6592 63.6166 88.1751 53.3506 99.4329C49.7249 103.405 45.0137 105.057 43.922 111.008C43.2832 114.485 45.3922 117.18 45.0988 119.393L45.1349 119.714" stroke="#43474F" stroke-width="5.5" stroke-linecap="round" stroke-linejoin="round"/>
<path d="M62.1063 91.1559L74.3926 103.999" stroke="#43474F" stroke-width="5.5" stroke-linecap="round" stroke-linejoin="round"/>
<path d="M112.754 74.115L112.773 74.4091C112.339 76.0654 112.741 76.9967 111.848 79.4257C111.302 80.9204 109.778 84.3708 108.868 85.5859C108.805 85.6655 108.755 85.7505 108.691 85.8301C105.004 90.5298 90.437 99.139 84.4052 101.8C80.2684 103.627 61.0667 108.711 59.6605 109.874" stroke="#43474F" stroke-width="5.5" stroke-linecap="round" stroke-linejoin="round"/>
<path d="M64.1138 84.5346C61.5325 83.0657 52.8048 81.3838 51.0228 79.8205C49.2407 78.2573 47.1354 70.0879 45.4116 67.7466" stroke="#43474F" stroke-width="5.5" stroke-linecap="round" stroke-linejoin="round"/>
<path d="M82.4778 104.012C84.1788 106.808 84.176 113.776 85.7793 116.091C86.9311 117.754 95.8959 121.389 98.1447 122.772" stroke="#43474F" stroke-width="5.5" stroke-linecap="round" stroke-linejoin="round"/>
<path d="M68.7278 79.2523C66.0725 78.0035 58.7286 76.4128 56.7676 74.852C54.8774 73.3471 53.1554 65.5696 51.1993 63.3646" stroke="#43474F" stroke-width="5.5" stroke-linecap="round" stroke-linejoin="round"/>
<path d="M96.965 96.4009C98.6342 99.4976 98.5892 102.619 99.6649 105.764C99.7842 106.096 99.9728 106.564 100.167 106.839C103.007 108.992 106.822 109.879 109.749 112.059C110.327 112.383 111.527 113.058 111.991 113.317C112.07 115.665 110.921 115.874 108.632 115.136C107.884 114.769 107.142 114.32 106.356 113.833C105.133 113.152 103.831 112.569 102.519 111.939C100.568 110.922 98.0904 110.068 96.8823 108.211C95.0793 105.02 95.3512 101.016 93.73 97.8523C92.6461 95.9173 95.7803 94.487 96.9563 96.3919L96.965 96.4009Z" fill="#43474F"/>
<path d="M73.6864 74.5031C71.2221 72.768 64.1507 71.3335 62.2824 69.6257C60.6375 68.1243 58.7282 60.9823 57.3478 58.7742" stroke="#43474F" stroke-width="5.5" stroke-linecap="round" stroke-linejoin="round"/>
<path d="M101.569 93.1946C103.168 95.55 103.555 101.778 105.118 103.645C106.363 105.135 113.872 107.864 115.851 109.426" stroke="#43474F" stroke-width="5.5" stroke-linecap="round" stroke-linejoin="round"/>
<path d="M77.9394 70.9387C75.8386 69.5665 72.8583 68.8645 70.4052 67.8826C69.1126 67.3633 67.3437 66.7259 66.3433 65.5098C65.3101 64.1152 64.7877 62.4687 64.2071 60.9599C63.7498 59.7333 63.3474 58.5279 62.7991 57.3778C62.2657 56.4508 61.7692 55.3007 61.4098 54.438C61.2349 52.694 62.7451 51.6896 64.4592 52.8294C64.9816 54.2413 66.2158 56.0083 66.7298 57.4656C67.6091 59.5389 68.1181 61.7581 69.3134 63.656C69.8935 64.1804 70.811 64.4976 71.7975 64.8958C74.7214 66.0624 77.6305 66.6539 80.3104 68.5044C82.1826 69.9628 79.836 72.3865 77.9444 70.9349L77.9394 70.9387Z" fill="#43474F"/>
<path d="M107.38 88.808C108.988 91.1094 109.787 97.4786 111.378 99.2851C112.806 100.903 119.442 103.164 121.463 104.842" stroke="#43474F" stroke-width="5.5" stroke-linecap="round" stroke-linejoin="round"/>
<path d="M84.9242 65.3478C82.574 63.4341 75.8721 61.8248 73.9776 60.0985C72.342 58.6066 70.6165 51.9371 69.2542 49.8022" stroke="#43474F" stroke-width="5.5" stroke-linecap="round" stroke-linejoin="round"/>
<path d="M147.703 91.9617L147.451 92.1515C141.667 94.1985 138.665 103.019 129.477 97.8425C123.125 94.2668 115.32 91.8394 110.016 86.2584" stroke="#43474F" stroke-width="5.5" stroke-linecap="round" stroke-linejoin="round"/>
<path d="M112.943 74.0756L113.155 73.7984C113.791 72.2606 116.334 71.7348 117.628 70.431C123.766 64.2258 115.159 55.0615 107.104 59.3836C105.46 60.268 104.391 62.3511 102.438 62.6765L102.143 62.804" stroke="#43474F" stroke-width="5.5" stroke-linecap="round" stroke-linejoin="round"/>
<path d="M102.147 62.8967L112.842 74.0755" stroke="#43474F" stroke-width="5.5" stroke-linecap="round" stroke-linejoin="round"/>
<path d="M87.3203 46.3384L87.4557 46.588C87.8506 49.6889 94.5022 58.0147 95.5104 61.6928" stroke="#43474F" stroke-width="5.5" stroke-linecap="round" stroke-linejoin="round"/>
<path d="M142.854 87.2029C139.818 87.0712 130.503 89.8873 128.243 89.4386" stroke="#43474F" stroke-width="5.5" stroke-linecap="round" stroke-linejoin="round"/>
<path d="M93.2277 33.5663C93.2469 35.6789 87.3618 44.3561 87.4442 46.3345" stroke="#43474F" stroke-width="5.5" stroke-linecap="round" stroke-linejoin="round"/>
<path d="M147.873 91.7369C149.591 91.2144 153.7 92.162 155.894 92.0278C175.425 90.8316 180.463 70.5056 168.444 58.5785C165.514 63.5279 164.916 70.6211 159.635 74.3059C152.221 79.4699 156.146 62.5845 155.437 59.7927C144.362 66.392 137.796 74.637 144.408 86.5859C144.454 86.6696 144.528 86.7473 144.573 86.831C145.514 88.5208 146.898 90.0653 147.878 91.7331L147.873 91.7369Z" stroke="#43474F" stroke-width="5.5" stroke-linecap="round" stroke-linejoin="round"/>
<path d="M89.1294 23.9259C88.7373 19.214 94.3045 12.8064 98.6815 10.612C107.806 6.04666 121.888 8.69849 127.774 16.7111L127.512 17.3091C119.546 17.9999 111.917 18.9244 106.237 24.434L122.701 28.1464C123.995 30.1594 116.696 34.388 115.004 35.1273C107.954 38.2259 99.8421 38.1383 93.5155 33.4053L93.3301 33.1755C93.3066 32.8787 92.7265 32.0735 92.5839 31.607C92.2161 30.4061 91.3808 29.1169 90.9194 27.9C90.544 26.9092 89.1974 24.6686 89.1388 23.9267L89.1294 23.9259Z" stroke="#43474F" stroke-width="5.5" stroke-linecap="round" stroke-linejoin="round"/>
<path d="M87.3764 46.3618L81.4475 47.3211" stroke="#43474F" stroke-width="5.5" stroke-linecap="round" stroke-linejoin="round"/>
<path d="M126.568 94.4921L128.217 89.4968" stroke="#43474F" stroke-width="5.5" stroke-linecap="round" stroke-linejoin="round"/>
<path d="M87.7748 30.0167C84.1549 32.373 77.5577 36.3427 77.3241 40.6928C77.0505 45.7714 84.9896 59.1676 88.3648 63.6416" stroke="#43474F" stroke-width="5.5" stroke-linecap="round" stroke-linejoin="round"/>
<path d="M128.243 89.5396L127.987 89.3807C126.506 88.9887 115.311 81.5558 113.136 80.1238" stroke="#43474F" stroke-width="5.5" stroke-linecap="round" stroke-linejoin="round"/>
<path d="M89.2781 100.75C90.2726 103.366 90.7655 109.797 92.2876 111.892C93.7161 113.861 101.67 116.539 103.944 118.419" stroke="#43474F" stroke-width="5.5" stroke-linecap="round" stroke-linejoin="round"/>
</svg>
