<svg width="181" height="169" viewBox="0 0 181 169" fill="none" xmlns="http://www.w3.org/2000/svg">
<path d="M93.3864 61.3532C107.82 71.9338 126.894 48.8621 134.626 36.0037V63.7411V91.4786C133.767 96.3771 128.44 107.203 114.006 111.317C95.9638 116.461 88.9678 95.5199 74.9757 84.8657C60.9837 74.2116 44.7824 91.846 23.7943 106.174C2.80624 120.502 -7.50369 101.765 23.7943 61.3532C55.0923 20.9409 75.344 48.1273 93.3864 61.3532Z" fill="#5BAF85" stroke="#43474F" stroke-width="8"/>
<path d="M92.9489 80.8575L118.839 134.342C100.856 142.945 81.863 122.091 78.8106 105.691C78.409 103.529 77.9103 98.7645 77.9553 96.61L77.5825 96.3214C77.6577 96.1071 77.7181 95.8877 77.7835 95.6658L77.8651 95.682C77.8712 95.6053 77.8377 95.523 77.8463 95.4512C77.8463 95.4512 77.8489 95.4439 77.8515 95.4365C77.8845 95.058 78.1217 94.6308 78.1774 94.2354C78.1885 94.1563 78.2294 94.0752 78.2455 93.9937C78.5189 92.16 79.333 90.1841 79.6292 88.3211C79.7087 87.822 79.9936 87.1999 80.0053 86.7517C80.0126 86.6007 80.2331 86.4581 80.2327 86.3169L80.4718 86.2639C84.7768 85.1479 88.9169 82.7955 92.9563 80.8601L92.9489 80.8575Z" fill="#FACC8A"/>
<path d="M106.991 75.0528C108.645 75.6002 110.754 76.7843 112.418 77.5424C113.275 77.9305 114.188 78.2676 115.02 78.7049C115.023 78.7099 115.035 78.71 115.043 78.7126C115.203 78.802 115.364 78.817 115.365 79.0623C117.145 81.2889 119.574 83.2784 121.338 85.4576C131.803 98.3801 137.127 125.587 118.859 134.327L92.9694 80.8426C97.0138 78.9048 101.477 77.1968 105.026 74.5127C105.084 74.4294 105.147 74.3685 105.217 74.3598C105.364 74.3448 105.523 74.4466 105.692 74.4518C105.935 74.4583 106.623 74.9279 106.991 75.0528Z" fill="#F59F8E"/>
<path d="M77.5625 96.3272L77.9353 96.6157C77.8903 98.7702 78.3889 103.535 78.7905 105.696C78.0236 105.867 77.9226 106.807 77.654 107.335C76.7794 109.057 71.8633 117.947 71.9464 119.013C73.4018 124.014 89.2689 152.314 88.8003 154.917C88.0714 158.973 84.6914 156.376 83.2876 154.037C79.3835 147.529 69.634 127.854 67.3392 120.932C67.1114 120.242 66.7164 119.128 66.7865 118.431C67.2721 113.883 75.6391 101.926 77.5601 96.3222L77.5625 96.3272Z" fill="#959AA3"/>
<path d="M121.352 85.4447C119.589 83.2655 117.16 81.2761 115.38 79.0496L115.619 78.9346C120.711 80.7423 135.538 81.543 138.983 84.0842C139.356 84.3604 139.888 85.1073 140.18 85.5208C142.543 88.9063 155.645 116.103 156.816 120.054C157.987 124.004 154.826 125.605 152.711 123.028L135.852 88.3506C134.609 87.3171 125.326 85.7229 123.231 85.5523C122.604 85.5024 121.989 85.3362 121.347 85.4471L121.352 85.4447Z" fill="#959AA3"/>
<path d="M103.918 72.1332C102.981 70.5593 102.089 69.001 101.237 67.3739C101.529 67.1235 101.916 66.9688 102.222 66.7484C103.806 65.6271 115.433 55.587 115.687 54.7215L111.552 28.5746C111.755 26.3009 114.698 24.9467 116.064 27.1694L120.85 56.0228C116.213 61.8167 110.014 66.2617 104.801 71.5505L104.039 72.3334C104.001 72.2659 103.962 72.1984 103.918 72.1332Z" fill="#959AA3"/>
<path d="M77.4757 79.1166C78.1467 80.701 78.9154 82.2325 79.3766 83.9052L78.5069 84.1313C71.1284 85.1946 63.7464 86.9789 56.259 87.0369L36.5025 65.054C35.7148 62.8061 38.7816 61.4168 40.4408 62.6632L58.2481 82.0569L76.4711 79.3949L77.4807 79.1142L77.4757 79.1166Z" fill="#959AA3"/>
<path d="M79.6177 88.3288C79.3262 90.1905 78.5042 92.1651 78.2329 94.0049C78.2218 94.084 78.1808 94.1651 78.1647 94.2467C78.1758 94.1675 78.2168 94.0864 78.2329 94.0049C77.7462 94.0043 77.3769 94.2858 76.9571 94.4624C65.3747 99.4461 54.2172 105.555 42.7188 110.726C42.1973 111.547 47.0702 123.426 45.7561 125.913C44.7334 127.855 42.0899 127.301 41.4347 125.315C41.2988 122.323 36.9006 110.906 37.5608 108.799C37.9338 107.618 39.2598 107.124 40.1976 106.527C46.9871 102.229 70.9565 90.7873 78.4166 88.6091C78.8157 88.4917 79.1983 88.3145 79.6203 88.3214L79.6177 88.3288Z" fill="#93AAB3"/>
<path d="M150.535 55.9194C148.679 56.4768 147.111 58.6681 147.92 60.5015C136.444 65.8536 124.965 71.2627 113.617 76.8922C113.209 77.0938 112.777 77.233 112.435 77.5448C110.77 76.786 108.659 75.6009 107.004 75.053C107.484 74.8352 107.9 74.5741 108.334 74.2738C113.339 70.7922 141.234 56.9624 146.867 55.413C148.553 54.9496 149.045 54.6278 150.535 55.9194Z" fill="#959AA3"/>
<path d="M150.534 55.9148C151.484 56.738 159.114 66.8266 159.772 68.0909C161.537 71.4616 159.095 73.4803 156.37 71.4786C155.811 71.0706 148.238 61.2133 147.921 60.4922C147.112 58.6606 148.684 56.4692 150.534 55.9148Z" fill="#81D0D5"/>
<path d="M101.22 67.3957C102.072 69.0228 102.962 70.5762 103.901 72.1552C103.94 72.2228 103.979 72.2903 104.023 72.3554L105.226 74.3798C105.156 74.3886 105.095 74.4545 105.035 74.5328C101.484 77.2175 97.0249 78.9233 92.9742 80.8639C88.9236 82.8044 84.7922 85.1525 80.4859 86.2686L80.2468 86.3217C80.2459 85.8856 79.5568 84.5064 79.3874 83.8866C78.9286 82.2189 78.1574 80.6823 77.4863 79.0978C76.8774 77.6679 76.0064 76.3329 75.4075 74.8982C74.8994 75.1724 74.4159 74.9736 73.9006 74.9007C71.1193 74.4808 61.1946 72.2016 59.3782 70.68L45.3677 41.9215C44.361 39.0529 47.6096 36.9678 49.5911 39.3941L62.9669 66.9503C63.8865 67.6964 70.4649 69.1624 71.9526 69.2736C72.3295 69.3021 72.8244 69.2433 73.1981 69.1503C70.8862 58.3607 89.0854 49.4023 96.1689 58.1889C96.4856 57.9265 96.7442 57.569 96.985 57.2385C98.7874 54.758 99.9525 51.5806 101.028 48.7165L87.7803 20.5949C88.2694 17.3049 90.8145 17.094 92.7082 19.7467C94.0549 21.6347 105.801 46.2823 106.036 47.8299C106.382 50.093 101.753 60.211 100.324 62.5069C100.074 62.9091 99.8049 63.321 99.333 63.5041C100.037 64.7472 100.542 66.1282 101.208 67.3955L101.22 67.3957Z" fill="#81D0D5"/>
<path d="M80.0038 64.3951C80.054 64.3588 80.1116 64.3251 80.1692 64.2913C83.0493 62.6164 85.677 66.9714 82.7367 68.6874C79.7964 70.4034 77.3222 66.2393 80.0038 64.3951Z" fill="#FEFEFE" stroke="#434850" stroke-width="3.77" stroke-linecap="round" stroke-linejoin="round"/>
<path d="M88.1523 60.2001C88.2025 60.1638 88.2601 60.13 88.3177 60.0963C91.1978 58.4214 93.8255 62.7763 90.8852 64.4923C87.9449 66.2084 85.4707 62.0443 88.1523 60.2001Z" fill="#FEFEFE" stroke="#434850" stroke-width="3.77" stroke-linecap="round" stroke-linejoin="round"/>
<path d="M77.8428 95.4339C77.8367 95.5106 77.8678 95.5879 77.8617 95.6646C77.8447 95.9617 77.954 96.2906 77.9519 96.5929C77.9069 98.7479 78.4057 103.514 78.8074 105.676C81.8609 122.081 100.868 142.942 118.849 134.334C137.123 125.592 131.798 98.3785 121.329 85.4528C119.565 83.273 117.135 81.283 115.354 79.0558L115.031 78.7061" stroke="#43474F" stroke-width="4.5" stroke-linecap="round" stroke-linejoin="round"/>
<path d="M79.9815 86.7528C79.9648 87.2034 79.6799 87.8255 79.6054 88.3222C79.3142 90.1828 78.4927 92.1562 78.2217 93.9948C78.2106 94.0739 78.1697 94.155 78.1536 94.2365C78.098 94.6319 77.8607 95.0591 77.8277 95.4376L77.7647 95.6645C77.6993 95.8863 77.6365 96.1008 77.5637 96.3201C75.6426 101.924 67.2752 113.881 66.7895 118.429C66.7144 119.129 67.1095 120.243 67.3422 120.93C69.6372 127.852 79.3849 147.524 83.2915 154.036C84.6954 156.376 88.0757 158.973 88.8046 154.917C89.2733 152.314 73.4052 124.013 71.9497 119.012C71.8666 117.945 76.783 109.056 77.6577 107.333" stroke="#43474F" stroke-width="4.5" stroke-linecap="round" stroke-linejoin="round"/>
<path d="M105.702 74.4363C105.945 74.4427 106.632 74.9123 107 75.0373C108.655 75.5847 110.763 76.7687 112.427 77.5268C113.285 77.915 114.198 78.252 115.03 78.6893C115.222 78.7693 115.414 78.8616 115.612 78.9268C120.706 80.7395 135.534 81.5403 138.979 84.0816C139.352 84.3577 139.885 85.1047 140.176 85.5182C142.539 88.9038 155.642 116.102 156.813 120.052C157.985 124.003 154.824 125.604 152.709 123.027L135.848 88.3481C134.605 87.3145 125.321 85.7203 123.227 85.5497" stroke="#43474F" stroke-width="4.5" stroke-linecap="round" stroke-linejoin="round"/>
<path d="M108.334 74.2624C113.338 70.7824 141.227 56.9594 146.86 55.4108C148.545 54.9477 149.037 54.6261 150.527 55.9172C151.478 56.7409 159.112 66.8362 159.771 68.1013C161.538 71.4743 159.094 73.4941 156.368 71.4911C155.808 71.0828 148.229 61.219 147.913 60.4974C136.439 65.8468 124.962 71.2533 113.616 76.88" stroke="#43474F" stroke-width="4.5" stroke-linecap="round" stroke-linejoin="round"/>
<path d="M78.4129 88.6165C70.9529 90.7944 46.9865 102.24 40.1948 106.534C39.2547 107.126 37.9287 107.619 37.5581 108.806C36.898 110.912 41.2967 122.33 41.4328 125.321C42.0856 127.303 44.7266 127.864 45.7542 125.92C47.0658 123.428 42.1997 111.552 42.7162 110.732C54.2169 105.554 65.3715 99.4532 76.9536 94.4699" stroke="#43474F" stroke-width="4.5" stroke-linecap="round" stroke-linejoin="round"/>
<path d="M105.226 74.3612L105.035 74.5143C101.482 77.2021 97.0202 78.9099 92.9671 80.8527C88.9139 82.7955 84.7801 85.1463 80.4712 86.2638L80.232 86.3169" stroke="#43474F" stroke-width="4.5" stroke-linecap="round" stroke-linejoin="round"/>
<path d="M104.796 71.5522C110.01 66.2634 116.208 61.8184 120.845 56.0246L116.059 27.1715C114.693 24.9488 111.751 26.3029 111.548 28.5767L115.682 54.7233C115.428 55.5888 103.801 65.6288 102.218 66.75" stroke="#43474F" stroke-width="4.5" stroke-linecap="round" stroke-linejoin="round"/>
<path d="M80.248 86.3229C80.2471 85.8867 79.558 84.5075 79.3886 83.8877C78.9297 82.2199 78.1586 80.6833 77.4875 79.0987C76.8785 77.6688 76.0075 76.3337 75.4086 74.899C74.5916 72.9478 73.6588 71.2672 73.2092 69.1461C70.8974 58.356 89.0981 49.3968 96.1818 58.1836C97.561 59.8963 98.3017 61.6381 99.3436 63.4939C100.047 64.7371 100.553 66.1182 101.219 67.3855C102.07 69.0126 102.96 70.5661 103.9 72.1451C103.938 72.2127 103.977 72.2802 104.021 72.3454L105.224 74.3698" stroke="#43474F" stroke-width="4.5" stroke-linecap="round" stroke-linejoin="round"/>
<path d="M76.4656 79.3975L58.2429 82.0594L40.4357 62.6658C38.7766 61.4195 35.7148 62.8064 36.4974 65.0567L56.2537 87.0393C63.7361 86.9837 71.118 85.1994 78.5014 84.1337" stroke="#43474F" stroke-width="4.5" stroke-linecap="round" stroke-linejoin="round"/>
<path d="M100.348 62.492C101.777 60.1969 106.403 50.082 106.058 47.8196C105.818 46.2749 94.0854 21.6381 92.737 19.7458C90.8443 17.0939 88.3004 17.3048 87.8115 20.5938L101.053 48.706C99.982 51.5669 98.8175 54.7432 97.0109 57.2254" stroke="#43474F" stroke-width="4.5" stroke-linecap="round" stroke-linejoin="round"/>
<path d="M71.953 69.2885C70.461 69.1798 63.8909 67.712 62.9717 66.9662L49.6033 39.4194C47.6228 36.994 44.3733 39.0735 45.3819 41.9461L59.3847 70.6948C61.2002 72.2158 71.12 74.4941 73.9 74.9138" stroke="#43474F" stroke-width="4.5" stroke-linecap="round" stroke-linejoin="round"/>
</svg>
