<svg width="191" height="160" viewBox="0 0 191 160" fill="none" xmlns="http://www.w3.org/2000/svg">
<path d="M98.4354 58.0858C113.668 68.103 133.796 46.26 141.956 34.0863V60.3466V86.607C141.05 91.2446 135.428 101.494 120.196 105.389C101.155 110.259 93.7724 90.433 79.0064 80.3462C64.2403 70.2595 47.1428 86.9548 24.9938 100.52C2.8447 114.085 -8.03555 96.3459 24.9938 58.0858C58.0231 19.8257 79.395 45.5643 98.4354 58.0858Z" fill="#5BAF85" stroke="#43474F" stroke-width="8"/>
<path d="M96.9452 76.5548L125.296 127.866C107.158 135.465 86.9831 115.196 83.2979 99.6059C82.8129 97.5509 82.1401 93.0333 82.113 90.9985L81.7211 90.7148C81.7909 90.5145 81.8454 90.3088 81.9048 90.1011L81.9891 90.1188C81.9927 90.0465 81.9556 89.9677 81.9619 89.9002C81.9619 89.9002 81.9643 89.8933 81.9667 89.8864C81.9877 89.5297 82.2164 89.133 82.26 88.7609C82.2687 88.6865 82.3079 88.6111 82.3216 88.5346C82.5396 86.8097 83.3068 84.9664 83.5472 83.2145C83.6117 82.7452 83.8825 82.1657 83.8794 81.7424C83.8817 81.5999 84.1028 81.4717 84.0977 81.3383L84.3409 81.2952C88.7152 80.3678 92.8785 78.2671 96.9529 76.5575L96.9452 76.5548Z" fill="#FACC8A"/>
<path d="M112.177 70.8134C113.89 71.3795 116.091 72.5608 117.822 73.3264C118.714 73.7185 119.661 74.064 120.529 74.5018C120.531 74.5066 120.544 74.5072 120.552 74.5098C120.719 74.599 120.884 74.618 120.894 74.8498C122.794 77.0065 125.35 78.9583 127.232 81.0698C138.394 93.5905 144.773 119.457 126.35 127.176L98.0051 75.8699C102.084 74.1583 106.599 72.6763 110.145 70.2449C110.202 70.1679 110.264 70.1122 110.335 70.106C110.485 70.0962 110.652 70.1971 110.825 70.207C111.075 70.2203 111.795 70.6844 112.177 70.8134Z" fill="#F59F8E"/>
<path d="M80.812 91.1912L81.2026 91.4744C81.2296 93.5057 81.9002 98.0155 82.3835 100.067C81.606 100.205 81.5345 101.089 81.2781 101.579C80.4428 103.178 75.7217 111.42 75.8427 112.429C77.4986 117.189 94.6652 144.358 94.2745 146.8C93.6672 150.605 90.1265 148.055 88.6133 145.806C84.405 139.552 73.7796 120.701 71.2012 114.103C70.9451 113.445 70.5039 112.382 70.5519 111.727C70.8941 107.45 79.0367 96.417 80.8094 91.1864L80.812 91.1912Z" fill="#959AA3"/>
<path d="M127.961 80.4852C126.086 78.3776 123.538 76.4293 121.645 74.2765L121.886 74.1751C127.147 76.0306 142.315 77.2235 145.919 79.7223C146.309 79.9938 146.878 80.7141 147.189 81.1127C149.717 84.376 164.017 110.417 165.346 114.178C166.676 117.939 163.502 119.356 161.255 116.863L142.865 83.6543C141.562 82.6427 132.028 80.865 129.883 80.6422C129.241 80.5766 128.607 80.4017 127.956 80.4873L127.961 80.4852Z" fill="#959AA3"/>
<path d="M110.438 68.2953C109.41 66.7658 108.429 65.2525 107.488 63.6749C107.783 63.4447 108.18 63.3087 108.49 63.1075C110.097 62.0851 121.836 52.8539 122.07 52.0358L116.872 26.9683C117.005 24.8052 120.016 23.6011 121.513 25.7624L127.48 53.4314C122.86 58.8202 116.571 62.8758 111.335 67.7657L110.571 68.4899C110.528 68.4243 110.486 68.3587 110.438 68.2953Z" fill="#959AA3"/>
<path d="M81.5209 75.5338C82.2729 77.0655 83.1246 78.5497 83.6616 80.1594L82.7654 80.3491C75.1327 81.1434 67.5212 82.6254 59.7407 82.4573L38.4486 60.8935C37.5525 58.7252 40.6923 57.4912 42.4598 58.7298L61.6368 77.7652L80.4863 75.7694L81.526 75.5316L81.5209 75.5338Z" fill="#959AA3"/>
<path d="M83.3093 83.6696C83.0621 85.4713 82.2577 87.3675 82.0311 89.1485C82.0219 89.2251 81.9812 89.3028 81.9668 89.3816C81.976 89.305 82.0167 89.2273 82.0311 89.1485C81.5166 89.1341 81.1354 89.3972 80.6974 89.5569C68.6172 94.0721 57.0229 99.6929 45.0377 104.393C44.5133 105.177 50.0525 116.864 48.7448 119.245C47.7272 121.103 44.9148 120.489 44.1573 118.54C43.9158 115.627 38.8935 104.402 39.5225 102.373C39.8782 101.235 41.2637 100.793 42.2354 100.239C49.2717 96.2534 74.2344 85.8129 82.0488 83.9078C82.4668 83.8051 82.8655 83.6437 83.3118 83.6624L83.3093 83.6696Z" fill="#93AAB3"/>
<path d="M158.641 53.0839C156.679 53.583 155.079 55.7124 156.003 57.5557C143.94 62.534 131.875 67.5688 119.957 72.8261C119.529 73.0144 119.073 73.14 118.718 73.4395C116.917 72.6379 114.627 71.4002 112.844 70.8082C113.348 70.606 113.784 70.359 114.237 70.0735C119.46 66.7635 148.754 53.8484 154.712 52.4745C156.495 52.0636 157.009 51.7585 158.641 53.0839Z" fill="#959AA3"/>
<path d="M158.572 52.8587C159.573 53.6628 167.723 63.4065 168.439 64.6193C170.358 67.8532 167.915 69.6929 165.055 67.7261C164.468 67.3251 156.383 57.8015 156.035 57.1113C155.147 55.3584 156.691 53.3312 158.572 52.8587Z" fill="#81D0D5"/>
<path d="M106.859 64.5628C107.804 66.1445 108.786 67.6569 109.82 69.1953C109.863 69.2611 109.905 69.3268 109.953 69.3904L111.278 71.3627C111.205 71.369 111.145 71.4301 111.084 71.5031C107.486 73.959 102.907 75.4512 98.7611 77.1804C94.6155 78.9096 90.4006 81.0258 85.9594 81.959L85.7125 82.0023C85.696 81.5854 84.9295 80.2458 84.731 79.6482C84.1938 78.0398 83.3363 76.5472 82.5811 75.0118C81.8962 73.6262 80.942 72.3231 80.2674 70.9333C79.7485 71.1795 79.2383 70.9746 78.6995 70.8889C75.7902 70.4013 65.3809 67.9148 63.4362 66.4041L47.8265 38.4811C46.6761 35.7079 49.9819 33.8157 52.1308 36.1963L67.0369 62.9504C68.0206 63.6921 74.9186 65.2974 76.4707 65.4499C76.8639 65.4888 77.3768 65.448 77.7624 65.3707C74.9699 54.9858 93.5871 46.9876 101.273 55.606C101.593 55.365 101.849 55.0313 102.088 54.7228C103.875 52.4077 104.973 49.4068 105.99 46.7026L91.1967 19.412C91.5878 16.2824 94.2286 16.1598 96.2942 18.7542C97.7633 20.6005 110.87 44.524 111.17 46.0105C111.61 48.1844 107.157 57.712 105.751 59.8621C105.506 60.2388 105.241 60.6242 104.756 60.7845C105.533 61.9945 106.108 63.3303 106.847 64.5622L106.859 64.5628Z" fill="#81D0D5"/>
<path d="M84.2546 60.8983C84.3057 60.865 84.3645 60.8345 84.4234 60.804C87.3667 59.2894 90.2632 63.542 87.2587 65.0941C84.2541 66.6462 81.5245 62.5811 84.2546 60.8983Z" fill="#FEFEFE" stroke="#434850" stroke-width="3.77" stroke-linecap="round" stroke-linejoin="round"/>
<path d="M92.8539 56.9267C92.9049 56.8935 92.9638 56.8629 93.0227 56.8324C95.9659 55.3178 98.8625 59.5704 95.8579 61.1225C92.8533 62.6746 90.1237 58.6096 92.8539 56.9267Z" fill="#FEFEFE" stroke="#434850" stroke-width="3.77" stroke-linecap="round" stroke-linejoin="round"/>
<path d="M81.9039 89.3305C81.9002 89.4037 81.9353 89.4785 81.9315 89.5517C81.9242 89.8352 82.0493 90.1529 82.0576 90.4418C82.0851 92.5009 82.7693 97.0723 83.2624 99.1518C87.0098 114.927 107.532 135.441 125.969 127.749C144.705 119.937 138.218 93.7597 126.865 81.0885C124.952 78.9517 122.351 76.9764 120.419 74.7938L120.071 74.4498" stroke="#43474F" stroke-width="4.5" stroke-linecap="round" stroke-linejoin="round"/>
<path d="M83.1471 82.1327C83.1453 82.5579 82.8746 83.1372 82.8151 83.6043C82.5799 85.3537 81.8054 87.1938 81.5902 88.9229C81.5815 88.9973 81.5423 89.0727 81.5286 89.1492C81.485 89.5212 81.2565 89.9178 81.2355 90.2744L81.1787 90.4869C81.1192 90.6946 81.0622 90.8954 80.995 91.1004C79.2172 96.3386 71.0515 107.388 70.7083 111.671C70.6551 112.33 71.0976 113.394 71.3594 114.05C73.9452 120.658 84.5982 139.532 88.8211 145.8C90.3387 148.052 93.8895 150.606 94.4985 146.795C94.8903 144.349 77.6748 117.141 76.0141 112.374C75.8928 111.363 80.6274 103.11 81.465 101.508" stroke="#43474F" stroke-width="4.5" stroke-linecap="round" stroke-linejoin="round"/>
<path d="M111.432 69.7366C111.681 69.7499 112.402 70.2139 112.783 70.3428C114.496 70.9089 116.696 72.0899 118.426 72.8553C119.318 73.2474 120.265 73.5928 121.132 74.0306C121.332 74.1118 121.531 74.2047 121.736 74.2721C127.016 76.1354 142.232 77.3303 145.848 79.8332C146.239 80.1051 146.81 80.8265 147.122 81.2259C149.658 84.4944 164.004 110.578 165.337 114.345C166.671 118.113 163.487 119.531 161.233 117.035L142.785 83.7716C141.477 82.7583 131.912 80.9777 129.761 80.7546" stroke="#43474F" stroke-width="4.5" stroke-linecap="round" stroke-linejoin="round"/>
<path d="M114.241 69.5605C119.408 66.3256 148.395 53.7203 154.294 52.3845C156.059 51.985 156.567 51.687 158.187 52.9891C159.221 53.8198 167.642 63.8787 168.383 65.1301C170.368 68.467 167.855 70.3586 164.905 68.3259C164.298 67.9114 155.945 58.0796 155.585 57.3676C143.647 62.2251 131.708 67.138 119.915 72.2692" stroke="#43474F" stroke-width="4.5" stroke-linecap="round" stroke-linejoin="round"/>
<path d="M81.9894 83.9349C74.1815 85.8279 49.2531 96.2403 42.2255 100.213C41.2526 100.761 39.8685 101.201 39.5184 102.345C38.8945 104.375 43.9431 115.624 44.1916 118.541C44.951 120.489 47.7618 121.116 48.7798 119.255C50.0787 116.869 44.5201 105.159 45.0373 104.377C57.0106 99.6866 68.5859 94.0872 80.6522 89.5888" stroke="#43474F" stroke-width="4.5" stroke-linecap="round" stroke-linejoin="round"/>
<path d="M110.905 70.4025L110.706 70.551C106.995 73.1501 102.276 74.7321 98.0025 76.5639C93.7293 78.3958 89.3842 80.6367 84.8078 81.6279L84.5533 81.674" stroke="#43474F" stroke-width="4.5" stroke-linecap="round" stroke-linejoin="round"/>
<path d="M111.355 67.7474C116.588 62.8598 122.873 58.8061 127.491 53.4198L121.526 25.7638C120.031 23.6036 117.021 24.8071 116.888 26.9692L122.083 52.0248C121.849 52.8426 110.117 62.0694 108.511 63.0914" stroke="#43474F" stroke-width="4.5" stroke-linecap="round" stroke-linejoin="round"/>
<path d="M85.2686 81.7254C85.2526 81.3076 84.4855 79.9659 84.2873 79.3671C83.7506 77.7557 82.8925 76.2606 82.1371 74.7227C81.452 73.3347 80.4965 72.0297 79.8217 70.6375C78.9013 68.7439 77.8694 67.1062 77.3268 65.0609C74.5403 54.6557 93.2302 46.6191 100.929 55.2484C102.428 56.9303 103.261 58.621 104.413 60.4299C105.191 61.6417 105.766 62.9799 106.505 64.2138C107.45 65.798 108.433 67.3127 109.468 68.8534C109.511 68.9193 109.554 68.9851 109.602 69.0488L110.928 71.0241" stroke="#43474F" stroke-width="4.5" stroke-linecap="round" stroke-linejoin="round"/>
<path d="M80.4558 75.7829L61.6174 77.7777L42.4516 58.7517C40.6851 57.5137 37.5523 58.7449 38.4427 60.9143L59.7224 82.4675C67.4933 82.6377 75.1003 81.1564 82.7337 80.3604" stroke="#43474F" stroke-width="4.5" stroke-linecap="round" stroke-linejoin="round"/>
<path d="M106.366 59.1847C107.742 57.0657 112.108 47.6781 111.68 45.5378C111.384 44.0763 98.6194 20.5332 97.184 18.7116C95.1694 16.159 92.5888 16.2826 92.2023 19.365L106.618 46.2249C105.626 48.887 104.548 51.8435 102.794 54.1274" stroke="#43474F" stroke-width="4.5" stroke-linecap="round" stroke-linejoin="round"/>
<path d="M75.7369 65.9014C74.2168 65.7551 67.4894 64.1801 66.5301 63.451L52.0149 37.1286C49.9203 34.7874 46.6875 36.649 47.8093 39.3826L63.0098 66.8549C64.9063 68.34 75.0655 70.7766 77.9052 71.2535" stroke="#43474F" stroke-width="4.5" stroke-linecap="round" stroke-linejoin="round"/>
</svg>
