<svg width="320" height="320" viewBox="0 0 320 320" fill="none" xmlns="http://www.w3.org/2000/svg">
<g clip-path="url(#clip0_806_2492)">
<path d="M153.245 153.72C153.655 161.13 153.245 167.91 159.245 175.1C163.735 180.48 170.155 181.12 173.155 184.39C173.305 184.55 173.555 184.61 173.685 184.76C173.805 184.9 173.785 185.16 173.905 185.32C188.205 203.56 197.965 201.15 220.485 198.33C236.735 196.3 237.195 189.09 244.325 178.6C244.445 178.43 244.345 178.12 244.445 177.98C246.445 175.42 256.405 172.49 259.565 169.99C272.485 159.78 261.085 146.91 256.435 135.88L255.045 135.64C247.395 144.39 238.625 145.61 236.225 158.26C235.845 160.29 236.755 165.02 235.855 166.67C235.755 166.85 235.855 167.14 235.765 167.28C234.975 168.45 213.155 181.91 211.775 182.18C211.585 182.22 211.455 182.46 211.305 182.47C211.155 182.48 210.975 182.27 210.785 182.27C209.475 182.27 187.205 173.88 186.175 173.07C186.025 172.95 185.775 172.98 185.655 172.87C185.535 172.76 185.545 172.5 185.415 172.37C184.665 171.58 176.195 153.87 176.065 152.79L153.275 153.71" fill="#6B964E"/>
<path d="M211.665 182.42L210.665 195.69" stroke="#43474F" stroke-width="6.51" stroke-linecap="round" stroke-linejoin="round"/>
<path d="M185.765 173.5L186.295 173.68C187.345 174.47 209.825 182.27 211.135 182.24L211.665 182.42" stroke="#43474F" stroke-width="6.51" stroke-linecap="round" stroke-linejoin="round"/>
<path d="M185.765 173.5L174.125 185.68" stroke="#43474F" stroke-width="6.51" stroke-linecap="round" stroke-linejoin="round"/>
<path d="M244.685 177.07L244.575 177.69C237.725 188.36 237.445 195.58 221.255 198.03C198.815 201.43 189.115 204.1 174.345 186.23L174.115 185.68" stroke="#43474F" stroke-width="6.51" stroke-linecap="round" stroke-linejoin="round"/>
<path d="M235.725 166.6C234.965 167.79 213.505 181.81 212.125 182.12L211.665 182.42" stroke="#43474F" stroke-width="6.51" stroke-linecap="round" stroke-linejoin="round"/>
<path d="M235.725 166.6L244.685 177.07" stroke="#43474F" stroke-width="6.51" stroke-linecap="round" stroke-linejoin="round"/>
<path d="M235.725 166.6L235.805 165.99C236.665 164.32 235.625 159.61 235.955 157.58C238.025 144.87 246.765 143.42 254.185 134.48L255.585 134.68C260.525 145.58 272.255 158.15 259.605 168.7C256.505 171.28 246.625 174.47 244.695 177.08" stroke="#43474F" stroke-width="6.51" stroke-linecap="round" stroke-linejoin="round"/>
<path d="M175.405 153.18L175.655 153.68C175.815 154.75 184.745 172.24 185.515 173.01L185.765 173.51" stroke="#43474F" stroke-width="6.51" stroke-linecap="round" stroke-linejoin="round"/>
<path d="M152.875 153.74L175.405 153.18" stroke="#43474F" stroke-width="6.51" stroke-linecap="round" stroke-linejoin="round"/>
<path d="M152.765 153.77C153.555 161.73 152.865 168.92 159.445 176.4C164.075 181.66 170.515 182.14 173.585 185.33L174.125 185.69" stroke="#43474F" stroke-width="6.51" stroke-linecap="round" stroke-linejoin="round"/>
<path d="M55.4951 150.89H224.485" stroke="#43474F" stroke-width="8.07" stroke-linecap="round" stroke-linejoin="round"/>
<path d="M100.085 82.24C110.601 82.24 119.125 73.7155 119.125 63.2C119.125 52.6845 110.601 44.16 100.085 44.16C89.5697 44.16 81.0452 52.6845 81.0452 63.2C81.0452 73.7155 89.5697 82.24 100.085 82.24Z" stroke="#43474F" stroke-width="8.45" stroke-linecap="round" stroke-linejoin="round"/>
<path d="M179.595 81.55C190.111 81.55 198.635 73.0255 198.635 62.51C198.635 51.9945 190.111 43.47 179.595 43.47C169.08 43.47 160.555 51.9945 160.555 62.51C160.555 73.0255 169.08 81.55 179.595 81.55Z" stroke="#43474F" stroke-width="8.45" stroke-linecap="round" stroke-linejoin="round"/>
<path d="M131.535 88.54C152.855 84.32 172.405 116.7 135.225 126.54C125.845 129.02 146.955 120.99 146.955 120.99" stroke="#43474F" stroke-width="8.45" stroke-linecap="round" stroke-linejoin="round"/>
</g>
<path d="M97.576 259.832C97.448 260.056 97.312 260.328 97.168 260.648C97.024 260.952 96.896 261.256 96.784 261.56C96.576 262.264 96.28 263.072 95.896 263.984C95.528 264.88 95.064 265.816 94.504 266.792C93.96 267.752 93.328 268.68 92.608 269.576C91.456 270.952 90.112 272.2 88.576 273.32C87.056 274.44 85.168 275.448 82.912 276.344L80.08 273.8C81.712 273.32 83.12 272.768 84.304 272.144C85.488 271.52 86.52 270.856 87.4 270.152C88.28 269.432 89.064 268.672 89.752 267.872C90.312 267.248 90.824 266.544 91.288 265.76C91.752 264.96 92.152 264.168 92.488 263.384C92.824 262.6 93.048 261.912 93.16 261.32H85.072L86.176 258.608C86.4 258.608 86.744 258.608 87.208 258.608C87.688 258.608 88.224 258.608 88.816 258.608C89.424 258.608 90.016 258.608 90.592 258.608C91.184 258.608 91.696 258.608 92.128 258.608C92.576 258.608 92.88 258.608 93.04 258.608C93.408 258.608 93.776 258.584 94.144 258.536C94.528 258.488 94.856 258.416 95.128 258.32L97.576 259.832ZM89.752 256.04C89.464 256.456 89.184 256.904 88.912 257.384C88.64 257.864 88.432 258.232 88.288 258.488C87.744 259.448 87.072 260.448 86.272 261.488C85.488 262.512 84.592 263.512 83.584 264.488C82.576 265.448 81.504 266.328 80.368 267.128L77.656 265.136C78.712 264.48 79.64 263.808 80.44 263.12C81.256 262.432 81.96 261.752 82.552 261.08C83.144 260.392 83.648 259.736 84.064 259.112C84.496 258.472 84.864 257.904 85.168 257.408C85.36 257.104 85.56 256.712 85.768 256.232C85.976 255.736 86.136 255.288 86.248 254.888L89.752 256.04ZM112.12 260.504C112.232 260.76 112.376 261.128 112.552 261.608C112.744 262.072 112.944 262.576 113.152 263.12C113.36 263.648 113.544 264.152 113.704 264.632C113.864 265.112 113.992 265.488 114.088 265.76L111.208 266.768C111.144 266.464 111.032 266.08 110.872 265.616C110.712 265.152 110.536 264.664 110.344 264.152C110.152 263.624 109.96 263.12 109.768 262.64C109.576 262.16 109.408 261.76 109.264 261.44L112.12 260.504ZM120.976 262.256C120.848 262.64 120.736 262.968 120.64 263.24C120.56 263.512 120.48 263.768 120.4 264.008C120.096 265.224 119.68 266.44 119.152 267.656C118.624 268.856 117.952 269.984 117.136 271.04C116.016 272.48 114.744 273.704 113.32 274.712C111.912 275.704 110.504 276.464 109.096 276.992L106.576 274.424C107.456 274.184 108.384 273.832 109.36 273.368C110.336 272.888 111.28 272.312 112.192 271.64C113.104 270.968 113.888 270.224 114.544 269.408C115.088 268.72 115.568 267.936 115.984 267.056C116.416 266.16 116.768 265.208 117.04 264.2C117.328 263.176 117.52 262.168 117.616 261.176L120.976 262.256ZM106.552 261.776C106.712 262.08 106.888 262.472 107.08 262.952C107.288 263.432 107.496 263.936 107.704 264.464C107.912 264.992 108.112 265.504 108.304 266C108.512 266.496 108.672 266.912 108.784 267.248L105.856 268.352C105.76 268.032 105.616 267.616 105.424 267.104C105.248 266.592 105.048 266.056 104.824 265.496C104.6 264.92 104.384 264.392 104.176 263.912C103.984 263.432 103.816 263.064 103.672 262.808L106.552 261.776ZM145.576 259.832C145.448 260.056 145.312 260.328 145.168 260.648C145.024 260.952 144.896 261.256 144.784 261.56C144.576 262.264 144.28 263.072 143.896 263.984C143.528 264.88 143.064 265.816 142.504 266.792C141.96 267.752 141.328 268.68 140.608 269.576C139.456 270.952 138.112 272.2 136.576 273.32C135.056 274.44 133.168 275.448 130.912 276.344L128.08 273.8C129.712 273.32 131.12 272.768 132.304 272.144C133.488 271.52 134.52 270.856 135.4 270.152C136.28 269.432 137.064 268.672 137.752 267.872C138.312 267.248 138.824 266.544 139.288 265.76C139.752 264.96 140.152 264.168 140.488 263.384C140.824 262.6 141.048 261.912 141.16 261.32H133.072L134.176 258.608C134.4 258.608 134.744 258.608 135.208 258.608C135.688 258.608 136.224 258.608 136.816 258.608C137.424 258.608 138.016 258.608 138.592 258.608C139.184 258.608 139.696 258.608 140.128 258.608C140.576 258.608 140.88 258.608 141.04 258.608C141.408 258.608 141.776 258.584 142.144 258.536C142.528 258.488 142.856 258.416 143.128 258.32L145.576 259.832ZM137.752 256.04C137.464 256.456 137.184 256.904 136.912 257.384C136.64 257.864 136.432 258.232 136.288 258.488C135.744 259.448 135.072 260.448 134.272 261.488C133.488 262.512 132.592 263.512 131.584 264.488C130.576 265.448 129.504 266.328 128.368 267.128L125.656 265.136C126.712 264.48 127.64 263.808 128.44 263.12C129.256 262.432 129.96 261.752 130.552 261.08C131.144 260.392 131.648 259.736 132.064 259.112C132.496 258.472 132.864 257.904 133.168 257.408C133.36 257.104 133.56 256.712 133.768 256.232C133.976 255.736 134.136 255.288 134.248 254.888L137.752 256.04ZM169.648 258.68C169.616 258.792 169.568 258.96 169.504 259.184C169.44 259.392 169.384 259.6 169.336 259.808C169.288 260.016 169.248 260.176 169.216 260.288C169.072 261.12 168.896 262.048 168.688 263.072C168.496 264.08 168.216 265.112 167.848 266.168C167.496 267.224 167 268.232 166.36 269.192C165.368 270.76 164.08 272.136 162.496 273.32C160.928 274.488 159.184 275.408 157.264 276.08L154.576 273.344C155.664 273.072 156.76 272.68 157.864 272.168C158.984 271.64 160.032 270.992 161.008 270.224C161.984 269.44 162.784 268.552 163.408 267.56C163.824 266.904 164.176 266.184 164.464 265.4C164.752 264.616 164.992 263.8 165.184 262.952C165.376 262.088 165.512 261.224 165.592 260.36C165.384 260.36 165.048 260.36 164.584 260.36C164.12 260.36 163.576 260.36 162.952 260.36C162.328 260.36 161.664 260.36 160.96 260.36C160.256 260.36 159.552 260.36 158.848 260.36C158.144 260.36 157.472 260.36 156.832 260.36C156.208 260.36 155.648 260.36 155.152 260.36C154.672 260.36 154.312 260.36 154.072 260.36C154.072 260.52 154.072 260.728 154.072 260.984C154.072 261.224 154.072 261.504 154.072 261.824C154.072 262.128 154.072 262.44 154.072 262.76C154.072 263.064 154.072 263.36 154.072 263.648C154.072 263.92 154.072 264.16 154.072 264.368C154.072 264.544 154.072 264.824 154.072 265.208C154.088 265.576 154.12 265.952 154.168 266.336H150.64C150.672 265.952 150.696 265.608 150.712 265.304C150.744 265 150.76 264.688 150.76 264.368C150.76 264.128 150.76 263.784 150.76 263.336C150.76 262.888 150.76 262.408 150.76 261.896C150.76 261.368 150.76 260.872 150.76 260.408C150.76 259.944 150.76 259.576 150.76 259.304C150.76 258.968 150.744 258.632 150.712 258.296C150.696 257.944 150.672 257.608 150.64 257.288C151.024 257.304 151.472 257.328 151.984 257.36C152.496 257.376 153.032 257.384 153.592 257.384C153.72 257.384 153.992 257.384 154.408 257.384C154.84 257.384 155.36 257.384 155.968 257.384C156.576 257.384 157.24 257.384 157.96 257.384C158.68 257.384 159.4 257.384 160.12 257.384C160.856 257.384 161.552 257.384 162.208 257.384C162.864 257.384 163.44 257.384 163.936 257.384C164.432 257.384 164.808 257.384 165.064 257.384C165.464 257.384 165.856 257.368 166.24 257.336C166.64 257.304 167 257.264 167.32 257.216L169.648 258.68ZM173.488 265.424C175.648 264.864 177.6 264.216 179.344 263.48C181.104 262.728 182.648 261.944 183.976 261.128C184.808 260.616 185.64 260.032 186.472 259.376C187.32 258.704 188.112 258.016 188.848 257.312C189.6 256.608 190.232 255.936 190.744 255.296L193.336 257.768C192.6 258.488 191.792 259.216 190.912 259.952C190.048 260.688 189.144 261.392 188.2 262.064C187.256 262.736 186.32 263.352 185.392 263.912C184.48 264.44 183.456 264.984 182.32 265.544C181.2 266.104 180.016 266.632 178.768 267.128C177.52 267.624 176.264 268.064 175 268.448L173.488 265.424ZM183.472 262.664L186.88 261.872V272.672C186.88 273.024 186.888 273.408 186.904 273.824C186.92 274.24 186.944 274.624 186.976 274.976C187.008 275.344 187.048 275.624 187.096 275.816H183.304C183.336 275.624 183.36 275.344 183.376 274.976C183.408 274.624 183.432 274.24 183.448 273.824C183.464 273.408 183.472 273.024 183.472 272.672V262.664ZM208.072 274.232C208.12 273.992 208.16 273.72 208.192 273.416C208.24 273.096 208.264 272.776 208.264 272.456C208.264 272.28 208.264 271.928 208.264 271.4C208.264 270.872 208.264 270.232 208.264 269.48C208.264 268.728 208.264 267.92 208.264 267.056C208.264 266.176 208.264 265.288 208.264 264.392C208.264 263.496 208.264 262.656 208.264 261.872C208.264 261.072 208.264 260.376 208.264 259.784C208.264 259.176 208.264 258.736 208.264 258.464C208.264 257.92 208.232 257.448 208.168 257.048C208.12 256.648 208.088 256.432 208.072 256.4H211.648C211.632 256.432 211.6 256.656 211.552 257.072C211.504 257.472 211.48 257.944 211.48 258.488C211.48 258.76 211.48 259.168 211.48 259.712C211.48 260.24 211.48 260.856 211.48 261.56C211.48 262.248 211.48 262.984 211.48 263.768C211.48 264.552 211.48 265.328 211.48 266.096C211.48 266.848 211.48 267.568 211.48 268.256C211.48 268.928 211.48 269.504 211.48 269.984C211.48 270.464 211.48 270.816 211.48 271.04C212.136 270.752 212.816 270.36 213.52 269.864C214.224 269.368 214.912 268.792 215.584 268.136C216.272 267.464 216.88 266.744 217.408 265.976L219.256 268.616C218.6 269.48 217.8 270.328 216.856 271.16C215.928 271.992 214.968 272.752 213.976 273.44C212.984 274.128 212.032 274.704 211.12 275.168C210.864 275.312 210.656 275.44 210.496 275.552C210.336 275.68 210.2 275.792 210.088 275.888L208.072 274.232ZM196.96 273.872C198.016 273.136 198.88 272.248 199.552 271.208C200.224 270.168 200.72 269.144 201.04 268.136C201.216 267.608 201.344 266.96 201.424 266.192C201.52 265.408 201.592 264.576 201.64 263.696C201.688 262.8 201.712 261.92 201.712 261.056C201.728 260.176 201.736 259.368 201.736 258.632C201.736 258.152 201.712 257.744 201.664 257.408C201.632 257.056 201.584 256.728 201.52 256.424H205.048C205.032 256.456 205.008 256.592 204.976 256.832C204.96 257.056 204.936 257.328 204.904 257.648C204.888 257.952 204.88 258.272 204.88 258.608C204.88 259.312 204.872 260.136 204.856 261.08C204.84 262.008 204.808 262.96 204.76 263.936C204.712 264.912 204.64 265.84 204.544 266.72C204.448 267.584 204.32 268.32 204.16 268.928C203.792 270.288 203.24 271.552 202.504 272.72C201.784 273.872 200.912 274.904 199.888 275.816L196.96 273.872ZM236.368 256.904C236.592 257.224 236.84 257.6 237.112 258.032C237.384 258.464 237.64 258.896 237.88 259.328C238.136 259.76 238.36 260.16 238.552 260.528L236.464 261.464C236.24 260.952 236.016 260.496 235.792 260.096C235.584 259.696 235.368 259.312 235.144 258.944C234.92 258.56 234.656 258.16 234.352 257.744L236.368 256.904ZM239.512 255.584C239.752 255.904 240.008 256.272 240.28 256.688C240.568 257.104 240.84 257.528 241.096 257.96C241.368 258.376 241.592 258.768 241.768 259.136L239.752 260.12C239.496 259.608 239.248 259.16 239.008 258.776C238.784 258.376 238.552 258 238.312 257.648C238.088 257.28 237.824 256.904 237.52 256.52L239.512 255.584ZM226.792 272.816C226.792 272.496 226.792 271.992 226.792 271.304C226.792 270.6 226.792 269.792 226.792 268.88C226.792 267.952 226.792 266.992 226.792 266C226.792 264.992 226.792 264.024 226.792 263.096C226.792 262.152 226.792 261.32 226.792 260.6C226.792 259.88 226.792 259.352 226.792 259.016C226.792 258.584 226.768 258.096 226.72 257.552C226.688 257.008 226.632 256.528 226.552 256.112H230.296C230.248 256.528 230.2 256.992 230.152 257.504C230.104 258.016 230.08 258.52 230.08 259.016C230.08 259.448 230.08 260.048 230.08 260.816C230.08 261.584 230.08 262.44 230.08 263.384C230.08 264.312 230.08 265.264 230.08 266.24C230.08 267.216 230.08 268.152 230.08 269.048C230.08 269.928 230.08 270.704 230.08 271.376C230.08 272.032 230.08 272.512 230.08 272.816C230.08 273.024 230.088 273.336 230.104 273.752C230.136 274.152 230.168 274.568 230.2 275C230.248 275.432 230.288 275.816 230.32 276.152H226.552C226.632 275.688 226.688 275.136 226.72 274.496C226.768 273.84 226.792 273.28 226.792 272.816ZM229.384 262.328C230.184 262.536 231.072 262.808 232.048 263.144C233.04 263.464 234.04 263.816 235.048 264.2C236.056 264.568 237.008 264.936 237.904 265.304C238.8 265.656 239.536 265.976 240.112 266.264L238.768 269.6C238.08 269.232 237.328 268.872 236.512 268.52C235.696 268.168 234.864 267.824 234.016 267.488C233.184 267.136 232.368 266.816 231.568 266.528C230.768 266.24 230.04 265.992 229.384 265.784V262.328Z" fill="black"/>
<defs>
<clipPath id="clip0_806_2492">
<rect width="217.07" height="164.52" fill="white" transform="translate(51.4651 39.24)"/>
</clipPath>
</defs>
</svg>
