<svg width="20" height="20" viewBox="0 0 20 20" fill="none" xmlns="http://www.w3.org/2000/svg">
<g id="thumb_up">
<mask id="mask0_299_23149" style="mask-type:alpha" maskUnits="userSpaceOnUse" x="0" y="0" width="20" height="20">
<rect id="Bounding box" width="20" height="20" fill="#D9D9D9"/>
</mask>
<g mask="url(#mask0_299_23149)">
<path id="thumb_up_2" d="M14.9998 17.4997H5.83317V6.66634L11.6665 0.833008L12.7082 1.87467C12.8054 1.9719 12.8853 2.10384 12.9478 2.27051C13.0103 2.43717 13.0415 2.5969 13.0415 2.74967V3.04134L12.1248 6.66634H17.4998C17.9443 6.66634 18.3332 6.83301 18.6665 7.16634C18.9998 7.49967 19.1665 7.88856 19.1665 8.33301V9.99967C19.1665 10.0969 19.1526 10.2011 19.1248 10.3122C19.0971 10.4233 19.0693 10.5275 19.0415 10.6247L16.5415 16.4997C16.4165 16.7775 16.2082 17.0136 15.9165 17.208C15.6248 17.4024 15.3193 17.4997 14.9998 17.4997ZM7.49984 15.833H14.9998L17.4998 9.99967V8.33301H9.99984L11.1248 3.74967L7.49984 7.37467V15.833ZM5.83317 6.66634V8.33301H3.33317V15.833H5.83317V17.4997H1.6665V6.66634H5.83317Z" fill="#6B964E"/>
</g>
</g>
</svg>
